<svg width="24" height="24" viewBox="0 0 24 24" fill="none" xmlns="http://www.w3.org/2000/svg">
<path d="M24 21.4286V2.57143C24 1.15179 22.8482 0 21.4286 0H2.57143C1.15179 0 0 1.15179 0 2.57143V21.4286C0 22.8482 1.15179 24 2.57143 24H21.4286C22.8482 24 24 22.8482 24 21.4286ZM6 8.57143C5.52643 8.57143 5.14286 8.18786 5.14286 7.71429V6C5.14286 5.52643 5.52643 5.14286 6 5.14286H12.8571C13.3307 5.14286 13.7143 5.52643 13.7143 6V7.71429C13.7143 8.18786 13.3307 8.57143 12.8571 8.57143H6ZM6 13.7143C5.52643 13.7143 5.14286 13.3307 5.14286 12.8571V11.1429C5.14286 10.6693 5.52643 10.2857 6 10.2857H18C18.4736 10.2857 18.8571 10.6693 18.8571 11.1429V12.8571C18.8571 13.3307 18.4736 13.7143 18 13.7143H6ZM6 18.8571C5.52643 18.8571 5.14286 18.4736 5.14286 18V16.2857C5.14286 15.8121 5.52643 15.4286 6 15.4286H9.42857C9.90214 15.4286 10.2857 15.8121 10.2857 16.2857V18C10.2857 18.4736 9.90214 18.8571 9.42857 18.8571H6Z" fill="#E0E0E0"/>
</svg>
