<svg width="60" height="70" viewBox="0 0 60 70" fill="none" xmlns="http://www.w3.org/2000/svg">
<path d="M36.9205 4.26766C39.1418 2.79931 41.7535 2 44.4334 2C51.9263 2 58 8.07138 58 15.555V15.883C58 18.0471 57.5066 20.1741 56.5416 22.089L56.5383 22.0955L52.8703 29.4419C52.8695 29.4434 52.8687 29.445 52.8679 29.4465C52.0738 31.0171 51.532 32.683 51.2187 34.3874L51.2168 34.3976L45.481 66.538C45.3366 67.3466 44.6378 67.9537 43.8001 67.9833C42.9898 68.012 42.2557 67.4566 42.0671 66.652L42.0653 66.6446L37.5485 47.7006L37.5473 47.6956C36.7067 44.2097 33.5938 41.7447 30.0078 41.7447C26.417 41.7447 23.3121 44.2134 22.4547 47.7028L22.4547 47.7028L22.4515 47.7162L17.9347 66.6602L17.9339 66.6637C17.7445 67.4642 17.0019 68.0273 16.1999 67.999C15.3624 67.9693 14.6637 67.3624 14.519 66.5541C14.519 66.5539 14.519 66.5537 14.519 66.5536L8.78319 34.4132L8.78132 34.403C8.46806 32.6987 7.92622 31.0329 7.13218 29.4624C7.13136 29.4608 7.13053 29.4591 7.1297 29.4575L3.46593 22.1198C3.46523 22.1184 3.46454 22.1169 3.46384 22.1155C2.50347 20.1672 2 18.05 2 15.8986V14.9303C2 7.79026 7.77679 2.01562 14.9258 2.01562C17.7787 2.01562 20.5561 2.96594 22.8288 4.71211L22.8252 4.71781L28.6077 9.21541L28.608 9.21565L32.4212 12.1828L32.4283 12.1883C34.3778 13.6911 37.2159 13.3751 38.7491 11.3892C40.2529 9.44115 39.9375 6.60579 37.9542 5.07276C37.9526 5.07153 37.951 5.07029 37.9494 5.06906L36.9205 4.26766Z" stroke="#F9F9F9" stroke-width="4"/>
</svg>
