<svg width="25" height="29" viewBox="0 0 25 29" fill="none" xmlns="http://www.w3.org/2000/svg">
<path d="M15.3554 0.66322C14.4535 0.247462 13.4587 0 12.4008 0C9.42846 0 6.8924 1.8341 5.83999 4.42885H10.3347L15.3554 0.66322ZM18.9616 4.42885C18.5242 3.35098 17.8173 2.42479 16.9415 1.68739L13.286 4.42885H18.9616ZM12.4008 14.1723C16.3142 14.1723 19.4869 10.9996 19.4869 7.08616C19.4869 6.78278 19.4343 6.4938 19.3978 6.20039H5.40375C5.36666 6.4938 5.31462 6.78278 5.31462 7.08616C5.31462 10.9996 8.48733 14.1723 12.4008 14.1723ZM4.42885 16.5916V28.3446H11.5294L6.07915 16.0811C5.51091 16.1859 4.95698 16.3572 4.42885 16.5916ZM0 25.6873C0 27.1549 1.1897 28.3446 2.65731 28.3446V17.7287C1.04521 19.0933 0 21.1068 0 23.3843V25.6873ZM14.1723 23.03H11.1064L13.4687 28.3446H14.1723C15.6377 28.3446 16.8296 27.1527 16.8296 25.6873C16.8296 24.2219 15.6377 23.03 14.1723 23.03ZM17.3611 15.9439H16.436C15.2048 16.5074 13.8407 16.8296 12.4008 16.8296C10.9608 16.8296 9.59676 16.5074 8.36554 15.9439H7.95753L10.3198 21.2585H14.1723C16.6143 21.2585 18.6012 23.2454 18.6012 25.6873C18.6012 26.6882 18.2546 27.6022 17.6927 28.3446H22.1442C23.6119 28.3446 24.8015 27.1549 24.8015 25.6873V23.3843C24.8015 19.2749 21.4705 15.9439 17.3611 15.9439Z" fill="#9ED3C3"/>
</svg>
