<svg width="26" height="21" viewBox="0 0 26 21" fill="none" xmlns="http://www.w3.org/2000/svg">
<path d="M19.875 9.19482C16.7656 9.19482 14.25 11.7104 14.25 14.8198C14.25 17.9292 16.7656 20.4448 19.875 20.4448C22.9844 20.4448 25.5 17.9292 25.5 14.8198C25.5 11.7104 22.9844 9.19482 19.875 9.19482ZM22.375 15.0659C22.375 15.2729 22.2031 15.4448 21.9961 15.4448H19.6289C19.4219 15.4448 19.25 15.2729 19.25 15.0659V12.0737C19.25 11.8667 19.4219 11.6948 19.6289 11.6948H20.1211C20.3281 11.6948 20.5 11.8667 20.5 12.0737V14.1948H21.9961C22.2031 14.1948 22.375 14.3667 22.375 14.5737V15.0659ZM13 14.8198C13 13.7339 13.2617 12.7065 13.7109 11.7925C13.3984 11.7339 13.0781 11.6948 12.75 11.6948H12.0977C11.2305 12.0933 10.2656 12.3198 9.25 12.3198C8.23438 12.3198 7.27344 12.0933 6.40234 11.6948H5.75C2.85156 11.6948 0.5 14.0464 0.5 16.9448V18.5698C0.5 19.605 1.33984 20.4448 2.375 20.4448H15.9336C14.1641 19.1987 13 17.144 13 14.8198ZM9.25 10.4448C12.0117 10.4448 14.25 8.20654 14.25 5.44482C14.25 2.68311 12.0117 0.444824 9.25 0.444824C6.48828 0.444824 4.25 2.68311 4.25 5.44482C4.25 8.20654 6.48828 10.4448 9.25 10.4448Z" fill="#E0E0E0"/>
</svg>
