<svg width="50" height="50" viewBox="0 0 50 50" fill="none" xmlns="http://www.w3.org/2000/svg">
<rect width="50" height="50" rx="25" fill="#FEFEFF"/>
<path d="M24.3188 18.1854H27.0447C27.2255 18.1854 27.3988 18.1136 27.5266 17.9858C27.6544 17.858 27.7262 17.6846 27.7262 17.5039V16.1409C27.7262 15.9602 27.6544 15.7869 27.5266 15.6591C27.3988 15.5313 27.2255 15.4595 27.0447 15.4595H24.3188C24.1381 15.4595 23.9648 15.5313 23.837 15.6591C23.7092 15.7869 23.6374 15.9602 23.6374 16.1409V17.5039C23.6374 17.6846 23.7092 17.858 23.837 17.9858C23.9648 18.1136 24.1381 18.1854 24.3188 18.1854ZM24.3188 23.6372H29.7706C29.9514 23.6372 30.1247 23.5654 30.2525 23.4376C30.3803 23.3098 30.4521 23.1364 30.4521 22.9557V21.5927C30.4521 21.412 30.3803 21.2387 30.2525 21.1109C30.1247 20.9831 29.9514 20.9113 29.7706 20.9113H24.3188C24.1381 20.9113 23.9648 20.9831 23.837 21.1109C23.7092 21.2387 23.6374 21.412 23.6374 21.5927V22.9557C23.6374 23.1364 23.7092 23.3098 23.837 23.4376C23.9648 23.5654 24.1381 23.6372 24.3188 23.6372ZM35.2224 31.8149H24.3188C24.1381 31.8149 23.9648 31.8867 23.837 32.0145C23.7092 32.1423 23.6374 32.3156 23.6374 32.4963V33.8593C23.6374 34.04 23.7092 34.2134 23.837 34.3412C23.9648 34.469 24.1381 34.5408 24.3188 34.5408H35.2224C35.4032 34.5408 35.5765 34.469 35.7043 34.3412C35.8321 34.2134 35.9039 34.04 35.9039 33.8593V32.4963C35.9039 32.3156 35.8321 32.1423 35.7043 32.0145C35.5765 31.8867 35.4032 31.8149 35.2224 31.8149ZM24.3188 29.089H32.4965C32.6773 29.089 32.8506 29.0172 32.9784 28.8894C33.1062 28.7616 33.178 28.5882 33.178 28.4075V27.0445C33.178 26.8638 33.1062 26.6905 32.9784 26.5627C32.8506 26.4349 32.6773 26.3631 32.4965 26.3631H24.3188C24.1381 26.3631 23.9648 26.4349 23.837 26.5627C23.7092 26.6905 23.6374 26.8638 23.6374 27.0445V28.4075C23.6374 28.5882 23.7092 28.7616 23.837 28.8894C23.9648 29.0172 24.1381 29.089 24.3188 29.089ZM21.5929 29.089H19.5485V16.1409C19.5485 15.9602 19.4767 15.7869 19.3489 15.6591C19.2211 15.5313 19.0478 15.4595 18.867 15.4595H17.5041C17.3233 15.4595 17.15 15.5313 17.0222 15.6591C16.8944 15.7869 16.8226 15.9602 16.8226 16.1409V29.089H14.7782C14.1738 29.089 13.868 29.8233 14.2973 30.2522L17.7047 34.341C17.8325 34.4687 18.0058 34.5405 18.1864 34.5405C18.3671 34.5405 18.5403 34.4687 18.6681 34.341L22.0755 30.2522C22.5023 29.8241 22.1986 29.089 21.5929 29.089Z" fill="#878787"/>
</svg>
