<svg width="283" height="109" viewBox="0 0 283 109" fill="none" xmlns="http://www.w3.org/2000/svg">
<path d="M87.9219 10.6406C87.9219 8.25521 87.0729 6.76042 85.375 6.15625C84.7917 5.94792 84.1094 5.84375 83.3281 5.84375C82.5469 5.84375 81.875 5.93229 81.3125 6.10938C80.75 6.28646 80.2812 6.52604 79.9062 6.82812C79.1458 7.44271 78.7656 8.25521 78.7656 9.26562C78.7656 10.7969 79.8906 12.1042 82.1406 13.1875L84.0938 14.1094C85.0417 14.5469 85.9531 14.9948 86.8281 15.4531C87.7135 15.901 88.4948 16.4167 89.1719 17C90.6615 18.2708 91.4062 19.8438 91.4062 21.7188C91.4062 23.7292 90.5312 25.349 88.7812 26.5781C87.1458 27.724 85.0938 28.2969 82.625 28.2969C80.6667 28.2969 78.9375 27.9896 77.4375 27.375C76.3333 26.9375 75.5469 26.3177 75.0781 25.5156C74.8385 25.1094 74.7188 24.6146 74.7188 24.0312C74.7188 22.8646 75.0104 21.776 75.5938 20.7656C75.7917 20.526 76.0625 20.4062 76.4062 20.4062C77.0729 20.4062 77.4583 20.6042 77.5625 21C77.6979 22.8021 78.25 24.1146 79.2188 24.9375C80.1979 25.7604 81.5625 26.1719 83.3125 26.1719C85.3229 26.1719 86.6719 25.5156 87.3594 24.2031C87.599 23.7448 87.7188 23.2083 87.7188 22.5938C87.7188 21.9688 87.5521 21.4115 87.2188 20.9219C86.8854 20.4323 86.4427 19.9792 85.8906 19.5625C85.0469 18.9375 83.9271 18.3333 82.5312 17.75C81.1458 17.1667 80.0625 16.6562 79.2812 16.2188C78.5104 15.7812 77.8281 15.2708 77.2344 14.6875C75.9427 13.4167 75.2969 11.849 75.2969 9.98438C75.2969 8.07812 76.1146 6.55208 77.75 5.40625C79.3229 4.30208 81.3542 3.75 83.8438 3.75C87 3.75 89.0625 4.40104 90.0312 5.70312C90.3854 6.17188 90.5625 6.78646 90.5625 7.54688C90.5625 8.30729 90.4896 8.96875 90.3438 9.53125C90.2083 10.0938 90.0729 10.4583 89.9375 10.625C89.7083 10.9062 89.3125 11.0469 88.75 11.0469C88.1979 11.0469 87.9219 10.9115 87.9219 10.6406ZM108.078 22.6094C108.099 22.3802 108.411 22.2656 109.016 22.2656C109.297 22.2656 109.479 22.3229 109.562 22.4375C109.646 22.5417 109.74 22.7188 109.844 22.9688C109.948 23.2083 110.042 23.4896 110.125 23.8125C110.312 24.5417 110.406 25.2604 110.406 25.9688C110.406 26.6771 110.224 27.1927 109.859 27.5156C109.495 27.8385 108.901 28 108.078 28H97.2188C96.5521 28 96.0365 27.724 95.6719 27.1719C95.3281 26.8281 95.1562 26.3646 95.1562 25.7812C95.1562 25.4583 95.224 25.2292 95.3594 25.0938C99.4219 20.1146 101.859 17.0885 102.672 16.0156C103.484 14.9427 104.104 14.0833 104.531 13.4375C104.958 12.7917 105.271 12.3438 105.469 12.0938L106.078 11.3125L101 11.4844C100.073 11.526 99.3802 11.7396 98.9219 12.125C98.4635 12.5104 98.2396 13.151 98.25 14.0469C98.2292 14.2656 97.9479 14.375 97.4062 14.375C97.125 14.375 96.9427 14.3229 96.8594 14.2188C96.776 14.1042 96.6719 13.9583 96.5469 13.7812C96.4323 13.5938 96.3229 13.375 96.2188 13.125C95.9792 12.5625 95.8594 11.9375 95.8594 11.25C95.8594 10.5625 96.026 10.0573 96.3594 9.73438C96.7031 9.41146 97.2865 9.25 98.1094 9.25H108.812C109.292 9.25 109.646 9.75 109.875 10.75C109.938 11 109.969 11.2135 109.969 11.3906C109.969 11.5677 109.927 11.7135 109.844 11.8281L107.391 15.0938L102.312 21.5938C101.479 22.6667 100.844 23.5156 100.406 24.1406C99.9792 24.7656 99.6875 25.1771 99.5312 25.375L99.0781 25.9531L105.328 25.7188C106.266 25.6667 106.958 25.3594 107.406 24.7969C107.865 24.224 108.089 23.4948 108.078 22.6094ZM124.656 14.6562L124.672 14.0938C124.672 13.8958 124.625 13.5625 124.531 13.0938C124.438 12.6146 124.135 12.224 123.625 11.9219C123.125 11.6198 122.484 11.4688 121.703 11.4688C120.932 11.4688 120.245 11.6667 119.641 12.0625C119.047 12.4479 118.562 12.9688 118.188 13.625C117.479 14.875 117.125 16.5469 117.125 18.6406C117.125 20.6198 117.604 22.2292 118.562 23.4688C119.542 24.7396 120.833 25.375 122.438 25.375C123.896 25.375 125.292 24.974 126.625 24.1719C126.948 23.974 127.198 23.8021 127.375 23.6562C127.479 23.6562 127.599 23.7396 127.734 23.9062C127.995 24.2083 128.125 24.4531 128.125 24.6406C128.125 24.8177 128.052 25.026 127.906 25.2656C127.76 25.4948 127.547 25.7448 127.266 26.0156C126.995 26.276 126.667 26.5417 126.281 26.8125C125.896 27.0833 125.464 27.3281 124.984 27.5469C123.891 28.0469 122.771 28.2969 121.625 28.2969C120.479 28.2969 119.406 28.1042 118.406 27.7188C117.417 27.3229 116.562 26.7448 115.844 25.9844C114.302 24.3698 113.531 22.151 113.531 19.3281C113.531 16.1198 114.51 13.5417 116.469 11.5938C118.25 9.83333 120.307 8.95312 122.641 8.95312C124.172 8.95312 125.448 9.28125 126.469 9.9375C127.542 10.625 128.078 11.5312 128.078 12.6562C128.078 13.2708 127.943 13.7344 127.672 14.0469C127.203 14.599 126.656 14.875 126.031 14.875C125.417 14.875 124.958 14.8021 124.656 14.6562ZM144.141 22.6094C144.161 22.3802 144.474 22.2656 145.078 22.2656C145.359 22.2656 145.542 22.3229 145.625 22.4375C145.708 22.5417 145.802 22.7188 145.906 22.9688C146.01 23.2083 146.104 23.4896 146.188 23.8125C146.375 24.5417 146.469 25.2604 146.469 25.9688C146.469 26.6771 146.286 27.1927 145.922 27.5156C145.557 27.8385 144.964 28 144.141 28H133.281C132.615 28 132.099 27.724 131.734 27.1719C131.391 26.8281 131.219 26.3646 131.219 25.7812C131.219 25.4583 131.286 25.2292 131.422 25.0938C135.484 20.1146 137.922 17.0885 138.734 16.0156C139.547 14.9427 140.167 14.0833 140.594 13.4375C141.021 12.7917 141.333 12.3438 141.531 12.0938L142.141 11.3125L137.062 11.4844C136.135 11.526 135.443 11.7396 134.984 12.125C134.526 12.5104 134.302 13.151 134.312 14.0469C134.292 14.2656 134.01 14.375 133.469 14.375C133.188 14.375 133.005 14.3229 132.922 14.2188C132.839 14.1042 132.734 13.9583 132.609 13.7812C132.495 13.5938 132.385 13.375 132.281 13.125C132.042 12.5625 131.922 11.9375 131.922 11.25C131.922 10.5625 132.089 10.0573 132.422 9.73438C132.766 9.41146 133.349 9.25 134.172 9.25H144.875C145.354 9.25 145.708 9.75 145.938 10.75C146 11 146.031 11.2135 146.031 11.3906C146.031 11.5677 145.99 11.7135 145.906 11.8281L143.453 15.0938L138.375 21.5938C137.542 22.6667 136.906 23.5156 136.469 24.1406C136.042 24.7656 135.75 25.1771 135.594 25.375L135.141 25.9531L141.391 25.7188C142.328 25.6667 143.021 25.3594 143.469 24.7969C143.927 24.224 144.151 23.4948 144.141 22.6094ZM149.5 19.5938C149.5 18.3333 149.63 17.2135 149.891 16.2344C150.151 15.2552 150.5 14.3802 150.938 13.6094C151.385 12.8281 151.906 12.1458 152.5 11.5625C153.104 10.9792 153.75 10.4948 154.438 10.1094C155.792 9.33854 157.125 8.95312 158.438 8.95312C159.75 8.95312 160.802 9.1875 161.594 9.65625C162.385 10.1146 163.031 10.7292 163.531 11.5C164.458 12.9688 164.922 14.9219 164.922 17.3594C164.922 18.2656 164.542 18.7292 163.781 18.75L152.875 18.9844C152.938 21.2448 153.521 22.9167 154.625 24C155.562 24.9167 156.776 25.375 158.266 25.375C160.484 25.375 162.286 24.9115 163.672 23.9844C163.766 23.9844 163.88 24.0625 164.016 24.2188C164.276 24.5312 164.406 24.8021 164.406 25.0312C164.406 25.5312 163.781 26.1719 162.531 26.9531C161.094 27.849 159.417 28.2969 157.5 28.2969C155 28.2969 153.036 27.5 151.609 25.9062C150.203 24.3438 149.5 22.2396 149.5 19.5938ZM152.969 16.9688C155.969 16.8229 158.714 16.6302 161.203 16.3906C161.318 13.0781 160.172 11.4219 157.766 11.4219C156.422 11.4219 155.323 11.9427 154.469 12.9844C153.688 13.9427 153.188 15.2708 152.969 16.9688ZM177.047 28.0781C176.828 28.026 176.495 28 176.047 28H170.75C169.75 28 169.109 27.8229 168.828 27.4688C168.714 27.3333 168.656 27.1771 168.656 27C168.656 26.5625 168.74 26.2396 168.906 26.0312C169.156 26.1146 169.385 26.1562 169.594 26.1562C169.812 26.1562 169.995 26.1302 170.141 26.0781C170.286 26.0156 170.401 25.9167 170.484 25.7812C170.63 25.5312 170.703 25.0417 170.703 24.3125V14.0938C170.703 13.1146 170.521 12.5052 170.156 12.2656C170.01 12.1719 169.818 12.125 169.578 12.125C169.339 12.125 169.146 12.1615 169 12.2344C168.865 12.3073 168.75 12.3594 168.656 12.3906C168.573 12.4219 168.5 12.4219 168.438 12.3906C168.375 12.349 168.312 12.2917 168.25 12.2188C168.094 12.0312 168.016 11.8542 168.016 11.6875C168.016 11.5104 168.078 11.3229 168.203 11.125C168.339 10.9167 168.552 10.6823 168.844 10.4219C169.135 10.151 169.469 9.90625 169.844 9.6875C170.688 9.19792 171.531 8.95312 172.375 8.95312C173.333 8.95312 173.901 9.57812 174.078 10.8281C174.13 11.1927 174.161 11.5729 174.172 11.9688C175.693 10.625 177.26 9.70312 178.875 9.20312C179.417 9.03646 179.906 8.95312 180.344 8.95312C180.792 8.95312 181.156 9.01562 181.438 9.14062C181.729 9.26562 181.958 9.4375 182.125 9.65625C182.438 10.0833 182.594 10.6302 182.594 11.2969C182.594 11.9635 182.562 12.4948 182.5 12.8906C182.438 13.2865 182.359 13.6354 182.266 13.9375C182.078 14.5521 181.901 14.9427 181.734 15.1094C181.443 15.4115 181.052 15.5625 180.562 15.5625C180.062 15.5625 179.812 15.4167 179.812 15.125C179.812 14.0104 179.766 13.2969 179.672 12.9844C179.495 12.4115 179.161 12.125 178.672 12.125C178.182 12.125 177.74 12.1823 177.344 12.2969C176.948 12.401 176.562 12.5469 176.188 12.7344C175.427 13.1094 174.76 13.5938 174.188 14.1875V24.5781C174.219 25.401 174.578 25.901 175.266 26.0781C175.464 26.1302 175.688 26.1771 175.938 26.2188C176.188 26.2604 176.401 26.3125 176.578 26.375C176.766 26.4271 176.911 26.4896 177.016 26.5625C177.193 26.6979 177.281 26.9167 177.281 27.2188C177.281 27.5938 177.203 27.8802 177.047 28.0781ZM189.969 11.1406C191.531 9.68229 193.276 8.95312 195.203 8.95312C197.328 8.95312 199.057 9.6875 200.391 11.1562C201.849 12.7396 202.578 14.9479 202.578 17.7812C202.578 20.9688 201.578 23.5521 199.578 25.5312C197.693 27.375 195.464 28.2969 192.891 28.2969C191.214 28.2969 189.542 27.9167 187.875 27.1562C187.333 26.9167 186.87 26.6406 186.484 26.3281V4.95312C186.484 4.23438 186.411 3.77083 186.266 3.5625C186.047 3.22917 185.661 3.0625 185.109 3.0625C184.859 3.0625 184.625 3.08854 184.406 3.14062C184.188 3.18229 184.036 3.18229 183.953 3.14062C183.87 3.08854 183.797 3.02083 183.734 2.9375C183.516 2.60417 183.776 2.16667 184.516 1.625C185.661 0.78125 186.792 0.359375 187.906 0.359375C189.094 0.359375 189.76 1 189.906 2.28125C189.948 2.66667 189.969 3.07292 189.969 3.5V11.1406ZM189.969 13.625V24.5781C190.948 25.3906 192.12 25.7969 193.484 25.7969C195.099 25.7969 196.411 25.1979 197.422 24C198.495 22.7292 199.031 20.9844 199.031 18.7656C199.031 16.4323 198.557 14.6771 197.609 13.5C196.766 12.4271 195.583 11.8906 194.062 11.8906C192.552 11.8906 191.188 12.4688 189.969 13.625ZM216.641 26.0156C215.12 27.5365 213.281 28.2969 211.125 28.2969C209.458 28.2969 208.125 27.8177 207.125 26.8594C206.115 25.8906 205.609 24.6354 205.609 23.0938C205.609 21.1771 206.464 19.7396 208.172 18.7812C209.714 17.9062 211.885 17.4688 214.688 17.4688H216.641C216.651 17.0729 216.656 16.6875 216.656 16.3125V15.1406C216.656 13.7448 216.453 12.7604 216.047 12.1875C215.589 11.5417 214.807 11.2188 213.703 11.2188C211.172 11.2188 209.87 12.125 209.797 13.9375C209.786 14.2188 209.792 14.4531 209.812 14.6406C209.604 14.8073 209.25 14.8906 208.75 14.8906C208.26 14.8906 207.901 14.8333 207.672 14.7188C207.453 14.6042 207.26 14.4479 207.094 14.25C206.74 13.8438 206.562 13.3281 206.562 12.7031C206.562 12.0677 206.745 11.5156 207.109 11.0469C207.484 10.5677 207.99 10.1771 208.625 9.875C209.865 9.26042 211.328 8.95312 213.016 8.95312C214.703 8.95312 215.969 9.11979 216.812 9.45312C217.667 9.77604 218.344 10.2083 218.844 10.75C219.729 11.7083 220.172 12.9948 220.172 14.6094L220.016 22.1094C220.016 23.474 220.078 24.3385 220.203 24.7031C220.339 25.0677 220.495 25.3125 220.672 25.4375C220.859 25.5625 221.083 25.625 221.344 25.625C221.615 25.625 221.833 25.5833 222 25.5L222.438 25.2969C222.583 25.2448 222.708 25.3073 222.812 25.4844C222.927 25.651 222.984 25.8021 222.984 25.9375C222.984 26.0625 222.927 26.2292 222.812 26.4375C222.708 26.6458 222.505 26.8698 222.203 27.1094C221.911 27.3385 221.578 27.5417 221.203 27.7188C219.13 28.6979 217.719 28.4688 216.969 27.0312C216.812 26.75 216.703 26.4115 216.641 26.0156ZM216.594 23.9688C216.594 22.4688 216.604 20.9792 216.625 19.5C214.458 19.5833 212.984 19.724 212.203 19.9219C211.432 20.1094 210.875 20.2917 210.531 20.4688C210.188 20.6458 209.917 20.8542 209.719 21.0938C209.396 21.4896 209.234 22.0885 209.234 22.8906C209.234 23.6823 209.516 24.3177 210.078 24.7969C210.641 25.2656 211.448 25.5 212.5 25.5C213.99 25.5 215.354 24.9896 216.594 23.9688ZM280.609 14.7344C280.745 15.0052 280.812 15.3073 280.812 15.6406C280.812 15.9635 280.792 16.2344 280.75 16.4531C280.719 16.6719 280.667 16.8646 280.594 17.0312C280.406 17.4271 280.167 17.625 279.875 17.625H269.703C269.589 17.3125 269.531 17.0052 269.531 16.7031C269.531 16.3906 269.547 16.125 269.578 15.9062C269.62 15.6875 269.677 15.4896 269.75 15.3125C269.938 14.9271 270.156 14.7344 270.406 14.7344H280.609ZM9.59375 68.0781C9.38542 68.026 9.05208 68 8.59375 68H3.60938C2.60938 68 1.96875 67.8229 1.6875 67.4688C1.57292 67.3333 1.51562 67.1771 1.51562 67C1.51562 66.5625 1.59896 66.2396 1.76562 66.0312C2.01562 66.1146 2.29688 66.1562 2.60938 66.1562C2.93229 66.1562 3.17188 66.026 3.32812 65.7656C3.49479 65.5052 3.57292 65.0208 3.5625 64.3125V54.0938C3.5625 53.1146 3.38021 52.5052 3.01562 52.2656C2.86979 52.1719 2.67708 52.125 2.4375 52.125C2.19792 52.125 2.00521 52.1615 1.85938 52.2344C1.72396 52.3073 1.60938 52.3594 1.51562 52.3906C1.43229 52.4219 1.35938 52.4219 1.29688 52.3906C1.23438 52.349 1.17188 52.2917 1.10938 52.2188C0.953125 52.0521 0.875 51.8802 0.875 51.7031C0.875 51.5156 0.9375 51.3229 1.0625 51.125C1.19792 50.9167 1.41146 50.6823 1.70312 50.4219C1.99479 50.151 2.32812 49.9062 2.70312 49.6875C3.54688 49.1979 4.39062 48.9531 5.23438 48.9531C6.20312 48.9531 6.77604 49.5938 6.95312 50.875C7.00521 51.25 7.03646 51.6354 7.04688 52.0312C8.59896 50.7292 10.2865 49.8021 12.1094 49.25C12.7656 49.0521 13.4271 48.9531 14.0938 48.9531C14.7708 48.9531 15.4115 49.0417 16.0156 49.2188C16.6302 49.3958 17.1615 49.6823 17.6094 50.0781C18.5573 50.9115 19.0312 52.2135 19.0312 53.9844V64.5781C19.0625 65.3906 19.3646 65.8906 19.9375 66.0781C20.0938 66.1302 20.2865 66.1771 20.5156 66.2188C20.7448 66.2604 20.9479 66.3125 21.125 66.375C21.3125 66.4271 21.4583 66.4896 21.5625 66.5625C21.7396 66.6979 21.8281 66.9167 21.8281 67.2188C21.8281 67.5833 21.7448 67.8698 21.5781 68.0781C21.3698 68.026 21.0365 68 20.5781 68H15.5938C14.5938 68 13.9531 67.8229 13.6719 67.4688C13.5573 67.3333 13.5 67.1771 13.5 67C13.5 66.5625 13.5833 66.2396 13.75 66.0312C14 66.1146 14.2292 66.1562 14.4375 66.1562C14.6562 66.1562 14.8385 66.1302 14.9844 66.0781C15.1302 66.0156 15.2448 65.9167 15.3281 65.7812C15.474 65.5312 15.5469 65.0417 15.5469 64.3125V55.0938C15.5469 53.3229 15.0208 52.3333 13.9688 52.125C13.6458 52.0625 13.2396 52.0312 12.75 52.0312C12.2708 52.0312 11.7396 52.1042 11.1562 52.25C10.5729 52.3958 10.026 52.5833 9.51562 52.8125C8.53646 53.25 7.71354 53.8021 7.04688 54.4688V64.5781C7.07812 65.3906 7.375 65.8906 7.9375 66.0781C8.10417 66.1302 8.29688 66.1771 8.51562 66.2188C8.74479 66.2604 8.95312 66.3125 9.14062 66.375C9.32812 66.4271 9.47396 66.4896 9.57812 66.5625C9.75521 66.6979 9.84375 66.9167 9.84375 67.2188C9.84375 67.5833 9.76042 67.8698 9.59375 68.0781ZM27.8281 46.0469C27.474 46.0469 27.1458 45.9948 26.8438 45.8906C26.5521 45.776 26.2969 45.6146 26.0781 45.4062C25.6198 44.9688 25.3906 44.3802 25.3906 43.6406C25.3906 42.9323 25.6615 42.3333 26.2031 41.8438C26.724 41.3542 27.349 41.1094 28.0781 41.1094C28.8073 41.1094 29.3906 41.3281 29.8281 41.7656C30.2656 42.2031 30.4844 42.7969 30.4844 43.5469C30.4844 44.2552 30.224 44.8542 29.7031 45.3438C29.1927 45.8125 28.5677 46.0469 27.8281 46.0469ZM26.875 68C25.2708 68 24.4688 67.6354 24.4688 66.9062C24.4688 66.5312 24.5521 66.2396 24.7188 66.0312C24.9688 66.1146 25.1979 66.1562 25.4062 66.1562C26.375 66.1562 26.849 65.5417 26.8281 64.3125V53.8438C26.8281 53.1146 26.724 52.6094 26.5156 52.3281C26.3177 52.0365 25.9583 51.8906 25.4375 51.8906C25.0521 51.8906 24.7031 51.9375 24.3906 52.0312C24.2031 52.0521 24.0677 51.9062 23.9844 51.5938C23.9115 51.3125 23.9531 51.0677 24.1094 50.8594C24.2656 50.6406 24.5052 50.4167 24.8281 50.1875C25.1615 49.9479 25.526 49.7396 25.9219 49.5625C26.776 49.1562 27.4896 48.9531 28.0625 48.9531C28.6354 48.9531 29.0573 49.0365 29.3281 49.2031C29.6094 49.3698 29.8229 49.5938 29.9688 49.875C30.1979 50.3333 30.3125 51.0729 30.3125 52.0938V64.5781C30.3438 65.401 30.6406 65.901 31.2031 66.0781C31.3594 66.1302 31.5521 66.1771 31.7812 66.2188C32.0104 66.2604 32.2135 66.3125 32.3906 66.375C32.5781 66.4271 32.724 66.4896 32.8281 66.5625C33.0052 66.6979 33.0938 66.9167 33.0938 67.2188C33.0938 67.5938 33.0156 67.8802 32.8594 68.0781C32.6406 68.026 32.3073 68 31.8594 68H26.875ZM46.125 54.5C46.125 52.8958 45.4583 51.8333 44.125 51.3125C43.6979 51.1458 43.2344 51.0625 42.7344 51.0625C42.2448 51.0625 41.7865 51.1042 41.3594 51.1875C40.9427 51.2708 40.5729 51.401 40.25 51.5781C39.5208 51.974 39.1562 52.5417 39.1562 53.2812C39.1562 53.9896 39.4583 54.6042 40.0625 55.125C40.7292 55.6771 41.9688 56.3594 43.7812 57.1719C45.5938 57.974 46.9896 58.8542 47.9688 59.8125C48.9583 60.7604 49.4531 61.8542 49.4531 63.0938C49.4531 64.4896 48.8802 65.6667 47.7344 66.625C46.3906 67.7396 44.5312 68.2969 42.1562 68.2969C39.25 68.2969 37.2396 67.6771 36.125 66.4375C35.7396 66 35.5469 65.4427 35.5469 64.7656C35.5469 63.1302 35.9479 62.1771 36.75 61.9062C36.9479 61.8438 37.1354 61.8125 37.3125 61.8125C37.8021 61.8125 38.0677 61.9635 38.1094 62.2656C38.3385 64.8698 39.7969 66.1719 42.4844 66.1719C44.099 66.1719 45.1771 65.7188 45.7188 64.8125C45.8958 64.5208 45.9844 64.1667 45.9844 63.75C45.9844 63.3333 45.849 62.9531 45.5781 62.6094C45.3177 62.2656 44.9531 61.9479 44.4844 61.6562C44.0156 61.3542 43.4583 61.0625 42.8125 60.7812L40.7344 59.8438C37.5469 58.3854 35.9531 56.4479 35.9531 54.0312C35.9531 52.4688 36.6458 51.2188 38.0312 50.2812C39.3438 49.3958 41.0365 48.9531 43.1094 48.9531C45.9219 48.9531 47.6719 49.5625 48.3594 50.7812C48.5365 51.0938 48.625 51.4375 48.625 51.8125C48.625 52.1875 48.6042 52.526 48.5625 52.8281C48.5208 53.1198 48.4688 53.3854 48.4062 53.625C48.3021 54.0833 48.1823 54.4062 48.0469 54.5938C47.776 54.7917 47.3854 54.8906 46.875 54.8906C46.375 54.8906 46.125 54.7604 46.125 54.5ZM60.875 68.0781C60.6667 68.026 60.3333 68 59.875 68H55.1875C54.1875 68 53.5469 67.8229 53.2656 67.4688C53.151 67.3333 53.0938 67.1771 53.0938 67C53.0938 66.5625 53.1771 66.2396 53.3438 66.0312C53.5938 66.1146 53.8802 66.1562 54.2031 66.1562C54.526 66.1562 54.7656 66.026 54.9219 65.7656C55.0781 65.5052 55.151 65.0208 55.1406 64.3125V44.9531C55.1406 44.2344 55.0677 43.7708 54.9219 43.5625C54.7031 43.2292 54.3177 43.0625 53.7656 43.0625C53.599 43.0625 53.4271 43.0833 53.25 43.125C53.0833 43.1562 52.9531 43.151 52.8594 43.1094C52.776 43.0573 52.7083 42.9896 52.6562 42.9062C52.5208 42.6979 52.5312 42.4896 52.6875 42.2812C52.8542 42.0625 53.0885 41.8333 53.3906 41.5938C53.6927 41.3542 54.026 41.1458 54.3906 40.9688C55.1719 40.5625 55.8438 40.3594 56.4062 40.3594C56.9792 40.3594 57.401 40.4427 57.6719 40.6094C57.9531 40.776 58.1615 41 58.2969 41.2812C58.526 41.7396 58.6406 42.4792 58.6406 43.5V64.4688C58.6406 65.3333 58.901 65.8646 59.4219 66.0625C59.5677 66.125 59.7396 66.1771 59.9375 66.2188C60.1458 66.2604 60.3333 66.3125 60.5 66.375C60.6667 66.4271 60.7969 66.4896 60.8906 66.5625C61.0469 66.6979 61.125 66.9167 61.125 67.2188C61.125 67.5833 61.0417 67.8698 60.875 68.0781ZM67.4844 48.9531C69.1094 48.9531 69.9219 49.4531 69.9219 50.4531C69.9219 51.7135 68.6562 53.4531 66.125 55.6719C65.1458 56.5365 64.1615 57.276 63.1719 57.8906C63.8385 58.5052 64.5208 59.3021 65.2188 60.2812L66.8594 62.5938C68.2344 64.5625 69.2708 65.5469 69.9688 65.5469C70.5417 65.5469 70.9167 65.4896 71.0938 65.375C71.2812 65.2604 71.4167 65.1979 71.5 65.1875C71.5833 65.1771 71.6927 65.2135 71.8281 65.2969C71.9635 65.3802 72.0312 65.5208 72.0312 65.7188C72.0312 65.9167 71.9479 66.1667 71.7812 66.4688C71.625 66.7604 71.401 67.0417 71.1094 67.3125C70.401 67.9688 69.6354 68.2969 68.8125 68.2969C67.9896 68.2969 67.2969 68.1042 66.7344 67.7188C66.1719 67.3229 65.6458 66.8177 65.1562 66.2031C64.6667 65.5781 64.2031 64.8854 63.7656 64.125L62.4688 61.9062C61.4167 60.0938 60.5156 58.9167 59.7656 58.375C59.3281 58.0729 59.1823 57.8802 59.3281 57.7969L59.7812 57.5469L62.2969 55.75C63.3698 54.9479 64.1094 54.3177 64.5156 53.8594C65.3073 52.974 65.7031 52.2344 65.7031 51.6406C65.7031 51.224 65.2865 50.9844 64.4531 50.9219C64.349 50.7552 64.2969 50.5781 64.2969 50.3906C64.2969 50.2031 64.3958 50.0208 64.5938 49.8438C64.8021 49.6562 65.0625 49.5 65.375 49.375C66.0417 49.0938 66.7448 48.9531 67.4844 48.9531ZM77.1719 46.0469C76.8177 46.0469 76.4896 45.9948 76.1875 45.8906C75.8958 45.776 75.6406 45.6146 75.4219 45.4062C74.9635 44.9688 74.7344 44.3802 74.7344 43.6406C74.7344 42.9323 75.0052 42.3333 75.5469 41.8438C76.0677 41.3542 76.6927 41.1094 77.4219 41.1094C78.151 41.1094 78.7344 41.3281 79.1719 41.7656C79.6094 42.2031 79.8281 42.7969 79.8281 43.5469C79.8281 44.2552 79.5677 44.8542 79.0469 45.3438C78.5365 45.8125 77.9115 46.0469 77.1719 46.0469ZM76.2188 68C74.6146 68 73.8125 67.6354 73.8125 66.9062C73.8125 66.5312 73.8958 66.2396 74.0625 66.0312C74.3125 66.1146 74.5417 66.1562 74.75 66.1562C75.7188 66.1562 76.1927 65.5417 76.1719 64.3125V53.8438C76.1719 53.1146 76.0677 52.6094 75.8594 52.3281C75.6615 52.0365 75.3021 51.8906 74.7812 51.8906C74.3958 51.8906 74.0469 51.9375 73.7344 52.0312C73.5469 52.0521 73.4115 51.9062 73.3281 51.5938C73.2552 51.3125 73.2969 51.0677 73.4531 50.8594C73.6094 50.6406 73.849 50.4167 74.1719 50.1875C74.5052 49.9479 74.8698 49.7396 75.2656 49.5625C76.1198 49.1562 76.8333 48.9531 77.4062 48.9531C77.9792 48.9531 78.401 49.0365 78.6719 49.2031C78.9531 49.3698 79.1667 49.5938 79.3125 49.875C79.5417 50.3333 79.6562 51.0729 79.6562 52.0938V64.5781C79.6875 65.401 79.9844 65.901 80.5469 66.0781C80.7031 66.1302 80.8958 66.1771 81.125 66.2188C81.3542 66.2604 81.5573 66.3125 81.7344 66.375C81.9219 66.4271 82.0677 66.4896 82.1719 66.5625C82.349 66.6979 82.4375 66.9167 82.4375 67.2188C82.4375 67.5938 82.3594 67.8802 82.2031 68.0781C81.9844 68.026 81.651 68 81.2031 68H76.2188ZM84.75 59.5938C84.75 58.3333 84.8802 57.2135 85.1406 56.2344C85.401 55.2552 85.75 54.3802 86.1875 53.6094C86.6354 52.8281 87.1562 52.1458 87.75 51.5625C88.3542 50.9792 89 50.4948 89.6875 50.1094C91.0417 49.3385 92.375 48.9531 93.6875 48.9531C95 48.9531 96.0521 49.1875 96.8438 49.6562C97.6354 50.1146 98.2812 50.7292 98.7812 51.5C99.7083 52.9688 100.172 54.9219 100.172 57.3594C100.172 58.2656 99.7917 58.7292 99.0312 58.75L88.125 58.9844C88.1875 61.2448 88.7708 62.9167 89.875 64C90.8125 64.9167 92.026 65.375 93.5156 65.375C95.7344 65.375 97.5365 64.9115 98.9219 63.9844C99.0156 63.9844 99.1302 64.0625 99.2656 64.2188C99.526 64.5312 99.6562 64.8021 99.6562 65.0312C99.6562 65.5312 99.0312 66.1719 97.7812 66.9531C96.3438 67.849 94.6667 68.2969 92.75 68.2969C90.25 68.2969 88.2865 67.5 86.8594 65.9062C85.4531 64.3438 84.75 62.2396 84.75 59.5938ZM88.2188 56.9688C91.2188 56.8229 93.9635 56.6302 96.4531 56.3906C96.5677 53.0781 95.4219 51.4219 93.0156 51.4219C91.6719 51.4219 90.5729 51.9427 89.7188 52.9844C88.9375 53.9427 88.4375 55.2708 88.2188 56.9688ZM126.125 54.6562L126.141 54.0938C126.141 53.8958 126.094 53.5625 126 53.0938C125.906 52.6146 125.604 52.224 125.094 51.9219C124.594 51.6198 123.953 51.4688 123.172 51.4688C122.401 51.4688 121.714 51.6667 121.109 52.0625C120.516 52.4479 120.031 52.9688 119.656 53.625C118.948 54.875 118.594 56.5469 118.594 58.6406C118.594 60.6198 119.073 62.2292 120.031 63.4688C121.01 64.7396 122.302 65.375 123.906 65.375C125.365 65.375 126.76 64.974 128.094 64.1719C128.417 63.974 128.667 63.8021 128.844 63.6562C128.948 63.6562 129.068 63.7396 129.203 63.9062C129.464 64.2083 129.594 64.4531 129.594 64.6406C129.594 64.8177 129.521 65.026 129.375 65.2656C129.229 65.4948 129.016 65.7448 128.734 66.0156C128.464 66.276 128.135 66.5417 127.75 66.8125C127.365 67.0833 126.932 67.3281 126.453 67.5469C125.359 68.0469 124.24 68.2969 123.094 68.2969C121.948 68.2969 120.875 68.1042 119.875 67.7188C118.885 67.3229 118.031 66.7448 117.312 65.9844C115.771 64.3698 115 62.151 115 59.3281C115 56.1198 115.979 53.5417 117.938 51.5938C119.719 49.8333 121.776 48.9531 124.109 48.9531C125.641 48.9531 126.917 49.2812 127.938 49.9375C129.01 50.625 129.547 51.5312 129.547 52.6562C129.547 53.2708 129.411 53.7344 129.141 54.0469C128.672 54.599 128.125 54.875 127.5 54.875C126.885 54.875 126.427 54.8021 126.125 54.6562ZM132.625 59.5938C132.625 58.3333 132.755 57.2135 133.016 56.2344C133.276 55.2552 133.625 54.3802 134.062 53.6094C134.51 52.8281 135.031 52.1458 135.625 51.5625C136.229 50.9792 136.875 50.4948 137.562 50.1094C138.917 49.3385 140.25 48.9531 141.562 48.9531C142.875 48.9531 143.927 49.1875 144.719 49.6562C145.51 50.1146 146.156 50.7292 146.656 51.5C147.583 52.9688 148.047 54.9219 148.047 57.3594C148.047 58.2656 147.667 58.7292 146.906 58.75L136 58.9844C136.062 61.2448 136.646 62.9167 137.75 64C138.688 64.9167 139.901 65.375 141.391 65.375C143.609 65.375 145.411 64.9115 146.797 63.9844C146.891 63.9844 147.005 64.0625 147.141 64.2188C147.401 64.5312 147.531 64.8021 147.531 65.0312C147.531 65.5312 146.906 66.1719 145.656 66.9531C144.219 67.849 142.542 68.2969 140.625 68.2969C138.125 68.2969 136.161 67.5 134.734 65.9062C133.328 64.3438 132.625 62.2396 132.625 59.5938ZM136.094 56.9688C139.094 56.8229 141.839 56.6302 144.328 56.3906C144.443 53.0781 143.297 51.4219 140.891 51.4219C139.547 51.4219 138.448 51.9427 137.594 52.9844C136.812 53.9427 136.312 55.2708 136.094 56.9688ZM159.938 68.0781C159.729 68.026 159.396 68 158.938 68H153.953C152.953 68 152.312 67.8229 152.031 67.4688C151.917 67.3333 151.859 67.1771 151.859 67C151.859 66.5625 151.943 66.2396 152.109 66.0312C152.359 66.1146 152.641 66.1562 152.953 66.1562C153.276 66.1562 153.516 66.026 153.672 65.7656C153.839 65.5052 153.917 65.0208 153.906 64.3125V54.0938C153.906 53.1146 153.724 52.5052 153.359 52.2656C153.214 52.1719 153.021 52.125 152.781 52.125C152.542 52.125 152.349 52.1615 152.203 52.2344C152.068 52.3073 151.953 52.3594 151.859 52.3906C151.776 52.4219 151.703 52.4219 151.641 52.3906C151.578 52.349 151.516 52.2917 151.453 52.2188C151.297 52.0521 151.219 51.8802 151.219 51.7031C151.219 51.5156 151.281 51.3229 151.406 51.125C151.542 50.9167 151.755 50.6823 152.047 50.4219C152.339 50.151 152.672 49.9062 153.047 49.6875C153.891 49.1979 154.734 48.9531 155.578 48.9531C156.547 48.9531 157.12 49.5938 157.297 50.875C157.349 51.25 157.38 51.6354 157.391 52.0312C158.943 50.7292 160.63 49.8021 162.453 49.25C163.109 49.0521 163.771 48.9531 164.438 48.9531C165.115 48.9531 165.755 49.0417 166.359 49.2188C166.974 49.3958 167.505 49.6823 167.953 50.0781C168.901 50.9115 169.375 52.2135 169.375 53.9844V64.5781C169.406 65.3906 169.708 65.8906 170.281 66.0781C170.438 66.1302 170.63 66.1771 170.859 66.2188C171.089 66.2604 171.292 66.3125 171.469 66.375C171.656 66.4271 171.802 66.4896 171.906 66.5625C172.083 66.6979 172.172 66.9167 172.172 67.2188C172.172 67.5833 172.089 67.8698 171.922 68.0781C171.714 68.026 171.38 68 170.922 68H165.938C164.938 68 164.297 67.8229 164.016 67.4688C163.901 67.3333 163.844 67.1771 163.844 67C163.844 66.5625 163.927 66.2396 164.094 66.0312C164.344 66.1146 164.573 66.1562 164.781 66.1562C165 66.1562 165.182 66.1302 165.328 66.0781C165.474 66.0156 165.589 65.9167 165.672 65.7812C165.818 65.5312 165.891 65.0417 165.891 64.3125V55.0938C165.891 53.3229 165.365 52.3333 164.312 52.125C163.99 52.0625 163.583 52.0312 163.094 52.0312C162.615 52.0312 162.083 52.1042 161.5 52.25C160.917 52.3958 160.37 52.5833 159.859 52.8125C158.88 53.25 158.057 53.8021 157.391 54.4688V64.5781C157.422 65.3906 157.719 65.8906 158.281 66.0781C158.448 66.1302 158.641 66.1771 158.859 66.2188C159.089 66.2604 159.297 66.3125 159.484 66.375C159.672 66.4271 159.818 66.4896 159.922 66.5625C160.099 66.6979 160.188 66.9167 160.188 67.2188C160.188 67.5833 160.104 67.8698 159.938 68.0781ZM173.781 51.4688L173.453 51.5312C173.224 51.5312 173.062 51.375 172.969 51.0625C172.938 50.9792 172.922 50.8594 172.922 50.7031C172.922 50.5469 173.01 50.3542 173.188 50.125C173.365 49.8958 173.594 49.6979 173.875 49.5312C174.5 49.1458 175.161 48.9531 175.859 48.9531C176.411 48.9531 176.807 49.0312 177.047 49.1875C177.516 49.4792 177.88 50.0729 178.141 50.9688L182.906 64.7969C183.885 62.6198 184.557 61.0781 184.922 60.1719L185.875 57.75C186.76 55.375 187.203 53.8281 187.203 53.1094C187.203 52.3802 187.078 51.849 186.828 51.5156C186.578 51.1823 186.146 50.9844 185.531 50.9219C185.417 50.7969 185.359 50.6302 185.359 50.4219C185.359 50.2031 185.453 50.0052 185.641 49.8281C185.839 49.6406 186.094 49.4792 186.406 49.3438C187.042 49.0833 187.693 48.9531 188.359 48.9531C189.036 48.9531 189.516 48.9896 189.797 49.0625C190.078 49.125 190.302 49.2344 190.469 49.3906C190.792 49.6823 190.953 50.224 190.953 51.0156C190.953 51.724 190.396 53.5938 189.281 56.625C188.24 59.3333 187.458 61.2969 186.938 62.5156C185.021 66.7865 183.578 69.776 182.609 71.4844C181.641 73.1927 180.724 74.375 179.859 75.0312C178.995 75.6979 178.083 76.0312 177.125 76.0312C176.167 76.0312 175.443 75.8229 174.953 75.4062C174.464 75 174.219 74.4375 174.219 73.7188C174.219 73.1771 174.354 72.7708 174.625 72.5C175.135 71.9896 175.677 71.7917 176.25 71.9062C176.344 72.6875 176.812 73.0781 177.656 73.0781C178.417 73.0781 179.099 72.5833 179.703 71.5938C179.984 71.125 180.26 70.5781 180.531 69.9531L181.438 67.9375L181.75 67.2969C181.146 67.2135 180.635 66.9167 180.219 66.4062C180.052 66.2083 179.917 65.9583 179.812 65.6562L175.438 54.1719L175.062 53.25C174.583 52.0625 174.156 51.4688 173.781 51.4688ZM278.953 99.7812C278.932 100 278.542 100.109 277.781 100.109C277.031 100.109 276.656 99.9844 276.656 99.7344C276.656 99.4844 276.635 99.0677 276.594 98.4844C276.469 96.4948 276.37 94.9896 276.297 93.9688L275.719 85.5781C275.604 83.8594 275.547 82.7812 275.547 82.3438C275.547 82.0312 276.438 81.6875 278.219 81.3125C278.885 81.1771 279.406 81.1094 279.781 81.1094C280.156 81.1094 280.344 81.1615 280.344 81.2656C280.344 81.3594 280.323 81.6458 280.281 82.125L279.094 98C279.031 98.7396 278.984 99.3333 278.953 99.7812ZM275.203 105.703C275.203 104.953 275.448 104.333 275.938 103.844C276.438 103.344 277.052 103.094 277.781 103.094C278.969 103.094 279.786 103.615 280.234 104.656C280.37 104.979 280.438 105.328 280.438 105.703C280.438 106.432 280.188 107.052 279.688 107.562C279.188 108.052 278.552 108.297 277.781 108.297C277.052 108.297 276.438 108.052 275.938 107.562C275.448 107.062 275.203 106.443 275.203 105.703Z" fill="#464646"/>
<path d="M230.469 17.3438L230.453 21.4531C230.453 23.1719 230.542 24.2083 230.719 24.5625C230.896 24.9062 231.104 25.1146 231.344 25.1875C231.583 25.25 231.891 25.2812 232.266 25.2812C232.641 25.2812 232.979 25.2552 233.281 25.2031C233.594 25.1406 233.885 25.0625 234.156 24.9688C234.427 24.875 234.688 24.7708 234.938 24.6562L235.703 24.3281C235.88 24.2656 236.078 24.4479 236.297 24.875C236.359 24.9896 236.391 25.125 236.391 25.2812C236.391 25.4271 236.328 25.6198 236.203 25.8594C236.078 26.099 235.833 26.375 235.469 26.6875C235.115 26.9896 234.698 27.2604 234.219 27.5C233.177 28.0312 232.24 28.2969 231.406 28.2969C230.583 28.2969 229.911 28.25 229.391 28.1562C228.87 28.0625 228.427 27.875 228.062 27.5938C227.312 27.0104 226.938 25.9427 226.938 24.3906V12.0938H225.391C225.068 12.0938 224.833 11.9896 224.688 11.7812C224.438 11.4583 224.312 11.1875 224.312 10.9688C224.312 10.6042 224.401 10.401 224.578 10.3594C226.234 10.0781 227.406 8.84896 228.094 6.67188C228.292 6.01562 228.448 5.23958 228.562 4.34375C229.062 4.26042 229.438 4.21875 229.688 4.21875C229.948 4.21875 230.172 4.34896 230.359 4.60938C230.547 4.86979 230.635 5.17188 230.625 5.51562C230.625 5.85938 230.62 6.18229 230.609 6.48438C230.599 6.78646 230.589 7.11458 230.578 7.46875L230.516 9.65625H235.922C236.057 9.89583 236.125 10.151 236.125 10.4219V10.9062C236.125 11.3438 235.891 11.7031 235.422 11.9844C234.953 12.2552 234.432 12.3906 233.859 12.3906C233.297 12.3906 232.891 12.3854 232.641 12.375C232.401 12.3542 232.167 12.3333 231.938 12.3125L231.25 12.2188C231.01 12.1979 230.755 12.1771 230.484 12.1562V12.3281L230.469 17.3438ZM238.219 11.4688L237.891 11.5312C237.661 11.5312 237.5 11.375 237.406 11.0625C237.375 10.9792 237.359 10.8594 237.359 10.7031C237.359 10.5469 237.448 10.3542 237.625 10.125C237.802 9.89583 238.031 9.69792 238.312 9.53125C238.938 9.14583 239.599 8.95312 240.297 8.95312C240.849 8.95312 241.245 9.03125 241.484 9.1875C241.953 9.47917 242.318 10.0729 242.578 10.9688L247.344 24.7969C248.323 22.6198 248.995 21.0781 249.359 20.1719L250.312 17.75C251.198 15.375 251.641 13.8281 251.641 13.1094C251.641 12.3802 251.516 11.849 251.266 11.5156C251.016 11.1823 250.583 10.9844 249.969 10.9219C249.854 10.7969 249.797 10.6302 249.797 10.4219C249.797 10.2031 249.891 10.0052 250.078 9.82812C250.276 9.64062 250.531 9.47917 250.844 9.34375C251.479 9.08333 252.13 8.95312 252.797 8.95312C253.474 8.95312 253.953 8.98958 254.234 9.0625C254.516 9.125 254.74 9.23438 254.906 9.39062C255.229 9.68229 255.391 10.224 255.391 11.0156C255.391 11.724 254.833 13.5938 253.719 16.625C252.677 19.3333 251.896 21.2969 251.375 22.5156C249.458 26.7865 248.016 29.776 247.047 31.4844C246.078 33.1927 245.161 34.375 244.297 35.0312C243.432 35.6979 242.521 36.0312 241.562 36.0312C240.604 36.0312 239.88 35.8229 239.391 35.4062C238.901 35 238.656 34.4375 238.656 33.7188C238.656 33.1771 238.792 32.7708 239.062 32.5C239.573 31.9896 240.115 31.7917 240.688 31.9062C240.781 32.6875 241.25 33.0781 242.094 33.0781C242.854 33.0781 243.536 32.5833 244.141 31.5938C244.422 31.125 244.698 30.5781 244.969 29.9531L245.875 27.9375L246.188 27.2969C245.583 27.2135 245.073 26.9167 244.656 26.4062C244.49 26.2083 244.354 25.9583 244.25 25.6562L239.875 14.1719L239.5 13.25C239.021 12.0625 238.594 11.4688 238.219 11.4688ZM217.266 66.0469C215.651 67.5573 213.875 68.3125 211.938 68.3125C209.802 68.3125 208.062 67.5833 206.719 66.125C205.26 64.5208 204.531 62.3073 204.531 59.4844C204.531 56.3073 205.542 53.724 207.562 51.7344C209.448 49.8802 211.677 48.9531 214.25 48.9531C215.281 48.9531 216.271 49.125 217.219 49.4688V44.9531C217.219 44.224 217.146 43.7604 217 43.5625C216.76 43.2292 216.37 43.0625 215.828 43.0625C215.599 43.0625 215.37 43.0885 215.141 43.1406C214.922 43.1823 214.766 43.1823 214.672 43.1406C214.589 43.0885 214.521 43.0208 214.469 42.9375C214.26 42.5938 214.521 42.1562 215.25 41.625C216.396 40.7812 217.526 40.3594 218.641 40.3594C219.818 40.3594 220.49 41 220.656 42.2812C220.698 42.6667 220.719 43.0729 220.719 43.5V61.6406C220.719 63.2448 220.781 64.2448 220.906 64.6406C221.031 65.0365 221.177 65.2969 221.344 65.4219C221.521 65.5365 221.74 65.5938 222 65.5938C222.26 65.5938 222.474 65.5521 222.641 65.4688L223.109 65.2656C223.245 65.2344 223.365 65.2969 223.469 65.4531C223.688 65.776 223.719 66.0677 223.562 66.3281C223.406 66.5885 223.172 66.8385 222.859 67.0781C222.547 67.3177 222.198 67.526 221.812 67.7031C220.125 68.4635 218.865 68.4792 218.031 67.75C217.625 67.3958 217.37 66.8281 217.266 66.0469ZM217.219 52.6406C216.198 51.8594 215.01 51.4688 213.656 51.4688C212.031 51.4688 210.714 52.0677 209.703 53.2656C208.62 54.5469 208.078 56.2917 208.078 58.5C208.078 62.0104 209.078 64.1771 211.078 65C211.703 65.25 212.307 65.375 212.891 65.375C213.484 65.375 213.979 65.3281 214.375 65.2344C214.771 65.1406 215.141 65.0156 215.484 64.8594C216.172 64.5469 216.75 64.1667 217.219 63.7188V52.6406ZM227.453 54.0938C227.453 53.5 227.406 53.026 227.312 52.6719C227.229 52.3073 227.052 52.125 226.781 52.125C226.583 52.125 226.427 52.1458 226.312 52.1875L225.938 52.3438C225.865 52.3646 225.776 52.3229 225.672 52.2188C225.474 52 225.375 51.8021 225.375 51.625C225.375 51.4375 225.432 51.2448 225.547 51.0469C225.672 50.8385 225.854 50.6042 226.094 50.3438C226.344 50.0833 226.625 49.8542 226.938 49.6562C227.646 49.1875 228.286 48.9531 228.859 48.9531C229.432 48.9531 229.839 49.0521 230.078 49.25C230.318 49.4479 230.5 49.7083 230.625 50.0312C230.833 50.5521 230.938 51.3385 230.938 52.3906V62.1719C230.938 63.9323 231.469 64.9167 232.531 65.125C232.854 65.1875 233.234 65.2188 233.672 65.2188C234.12 65.2188 234.594 65.1615 235.094 65.0469C235.604 64.9323 236.089 64.7812 236.547 64.5938C237.432 64.2292 238.214 63.7656 238.891 63.2031V54.0938C238.891 53.1042 238.714 52.4948 238.359 52.2656C238.214 52.1719 238.021 52.125 237.781 52.125C237.542 52.125 237.349 52.1615 237.203 52.2344C237.068 52.3073 236.953 52.3594 236.859 52.3906C236.776 52.4219 236.703 52.4219 236.641 52.3906C236.578 52.349 236.51 52.2917 236.438 52.2188C236.281 52.0417 236.203 51.8646 236.203 51.6875C236.203 51.5104 236.266 51.3229 236.391 51.125C236.526 50.9167 236.74 50.6823 237.031 50.4219C237.323 50.151 237.656 49.9062 238.031 49.6875C238.875 49.1979 239.719 48.9531 240.562 48.9531C241.583 48.9531 242.167 49.6771 242.312 51.125C242.354 51.5312 242.375 51.9531 242.375 52.3906V61.6406C242.375 63.2448 242.438 64.2448 242.562 64.6406C242.688 65.0365 242.839 65.2969 243.016 65.4219C243.193 65.5365 243.411 65.5938 243.672 65.5938C243.932 65.5938 244.146 65.5521 244.312 65.4688L244.781 65.2656C244.917 65.2344 245.036 65.2969 245.141 65.4531C245.359 65.776 245.391 66.0677 245.234 66.3281C245.078 66.5885 244.833 66.8385 244.5 67.0781C244.177 67.3177 243.812 67.526 243.406 67.7031C241.604 68.4948 240.323 68.4792 239.562 67.6562C239.167 67.2292 238.943 66.5521 238.891 65.625C237.359 66.8021 235.792 67.6146 234.188 68.0625C233.604 68.2188 232.99 68.2969 232.344 68.2969C231.708 68.2969 231.083 68.2083 230.469 68.0312C229.865 67.8542 229.339 67.5677 228.891 67.1719C227.932 66.3281 227.453 65.026 227.453 63.2656V54.0938ZM260.516 62.6094C260.536 62.3802 260.849 62.2656 261.453 62.2656C261.734 62.2656 261.917 62.3229 262 62.4375C262.083 62.5417 262.177 62.7188 262.281 62.9688C262.385 63.2083 262.479 63.4896 262.562 63.8125C262.75 64.5417 262.844 65.2604 262.844 65.9688C262.844 66.6771 262.661 67.1927 262.297 67.5156C261.932 67.8385 261.339 68 260.516 68H249.656C248.99 68 248.474 67.724 248.109 67.1719C247.766 66.8281 247.594 66.3646 247.594 65.7812C247.594 65.4583 247.661 65.2292 247.797 65.0938C251.859 60.1146 254.297 57.0885 255.109 56.0156C255.922 54.9427 256.542 54.0833 256.969 53.4375C257.396 52.7917 257.708 52.3438 257.906 52.0938L258.516 51.3125L253.438 51.4844C252.51 51.526 251.818 51.7396 251.359 52.125C250.901 52.5104 250.677 53.151 250.688 54.0469C250.667 54.2656 250.385 54.375 249.844 54.375C249.562 54.375 249.38 54.3229 249.297 54.2188C249.214 54.1042 249.109 53.9583 248.984 53.7812C248.87 53.5938 248.76 53.375 248.656 53.125C248.417 52.5625 248.297 51.9375 248.297 51.25C248.297 50.5625 248.464 50.0573 248.797 49.7344C249.141 49.4115 249.724 49.25 250.547 49.25H261.25C261.729 49.25 262.083 49.75 262.312 50.75C262.375 51 262.406 51.2135 262.406 51.3906C262.406 51.5677 262.365 51.7135 262.281 51.8281L259.828 55.0938L254.75 61.5938C253.917 62.6667 253.281 63.5156 252.844 64.1406C252.417 64.7656 252.125 65.1771 251.969 65.375L251.516 65.9531L257.766 65.7188C258.703 65.6667 259.396 65.3594 259.844 64.7969C260.302 64.224 260.526 63.4948 260.516 62.6094ZM255.203 46.4219C254.849 46.4219 254.521 46.3698 254.219 46.2656C253.927 46.151 253.672 45.9896 253.453 45.7812C252.995 45.3333 252.766 44.7396 252.766 44C252.766 43.3021 253.031 42.7031 253.562 42.2031C254.083 41.724 254.708 41.4844 255.438 41.4844C256.177 41.4844 256.766 41.7031 257.203 42.1406C257.641 42.5781 257.859 43.1719 257.859 43.9219C257.859 44.6302 257.594 45.2292 257.062 45.7188C256.552 46.1875 255.932 46.4219 255.203 46.4219ZM265.125 51.4688L264.797 51.5312C264.568 51.5312 264.406 51.375 264.312 51.0625C264.281 50.9792 264.266 50.8594 264.266 50.7031C264.266 50.5469 264.354 50.3542 264.531 50.125C264.708 49.8958 264.938 49.6979 265.219 49.5312C265.844 49.1458 266.505 48.9531 267.203 48.9531C267.755 48.9531 268.151 49.0312 268.391 49.1875C268.859 49.4792 269.224 50.0729 269.484 50.9688L274.25 64.7969C275.229 62.6198 275.901 61.0781 276.266 60.1719L277.219 57.75C278.104 55.375 278.547 53.8281 278.547 53.1094C278.547 52.3802 278.422 51.849 278.172 51.5156C277.922 51.1823 277.49 50.9844 276.875 50.9219C276.76 50.7969 276.703 50.6302 276.703 50.4219C276.703 50.2031 276.797 50.0052 276.984 49.8281C277.182 49.6406 277.438 49.4792 277.75 49.3438C278.385 49.0833 279.036 48.9531 279.703 48.9531C280.38 48.9531 280.859 48.9896 281.141 49.0625C281.422 49.125 281.646 49.2344 281.812 49.3906C282.135 49.6823 282.297 50.224 282.297 51.0156C282.297 51.724 281.74 53.5938 280.625 56.625C279.583 59.3333 278.802 61.2969 278.281 62.5156C276.365 66.7865 274.922 69.776 273.953 71.4844C272.984 73.1927 272.068 74.375 271.203 75.0312C270.339 75.6979 269.427 76.0312 268.469 76.0312C267.51 76.0312 266.786 75.8229 266.297 75.4062C265.807 75 265.562 74.4375 265.562 73.7188C265.562 73.1771 265.698 72.7708 265.969 72.5C266.479 71.9896 267.021 71.7917 267.594 71.9062C267.688 72.6875 268.156 73.0781 269 73.0781C269.76 73.0781 270.443 72.5833 271.047 71.5938C271.328 71.125 271.604 70.5781 271.875 69.9531L272.781 67.9375L273.094 67.2969C272.49 67.2135 271.979 66.9167 271.562 66.4062C271.396 66.2083 271.26 65.9583 271.156 65.6562L266.781 54.1719L266.406 53.25C265.927 52.0625 265.5 51.4688 265.125 51.4688ZM132.016 94.0938C132.016 93.5 131.969 93.026 131.875 92.6719C131.792 92.3073 131.615 92.125 131.344 92.125C131.146 92.125 130.99 92.1458 130.875 92.1875L130.5 92.3438C130.427 92.3646 130.339 92.3229 130.234 92.2188C130.036 92 129.938 91.8021 129.938 91.625C129.938 91.4375 129.995 91.2448 130.109 91.0469C130.234 90.8385 130.417 90.6042 130.656 90.3438C130.906 90.0833 131.188 89.8542 131.5 89.6562C132.208 89.1875 132.849 88.9531 133.422 88.9531C133.995 88.9531 134.401 89.0521 134.641 89.25C134.88 89.4479 135.062 89.7083 135.188 90.0312C135.396 90.5521 135.5 91.3385 135.5 92.3906V102.172C135.5 103.932 136.031 104.917 137.094 105.125C137.417 105.188 137.797 105.219 138.234 105.219C138.682 105.219 139.156 105.161 139.656 105.047C140.167 104.932 140.651 104.781 141.109 104.594C141.995 104.229 142.776 103.766 143.453 103.203V94.0938C143.453 93.1042 143.276 92.4948 142.922 92.2656C142.776 92.1719 142.583 92.125 142.344 92.125C142.104 92.125 141.911 92.1615 141.766 92.2344C141.63 92.3073 141.516 92.3594 141.422 92.3906C141.339 92.4219 141.266 92.4219 141.203 92.3906C141.141 92.349 141.073 92.2917 141 92.2188C140.844 92.0417 140.766 91.8646 140.766 91.6875C140.766 91.5104 140.828 91.3229 140.953 91.125C141.089 90.9167 141.302 90.6823 141.594 90.4219C141.885 90.151 142.219 89.9062 142.594 89.6875C143.438 89.1979 144.281 88.9531 145.125 88.9531C146.146 88.9531 146.729 89.6771 146.875 91.125C146.917 91.5312 146.938 91.9531 146.938 92.3906V101.641C146.938 103.245 147 104.245 147.125 104.641C147.25 105.036 147.401 105.297 147.578 105.422C147.755 105.536 147.974 105.594 148.234 105.594C148.495 105.594 148.708 105.552 148.875 105.469L149.344 105.266C149.479 105.234 149.599 105.297 149.703 105.453C149.922 105.776 149.953 106.068 149.797 106.328C149.641 106.589 149.396 106.839 149.062 107.078C148.74 107.318 148.375 107.526 147.969 107.703C146.167 108.495 144.885 108.479 144.125 107.656C143.729 107.229 143.505 106.552 143.453 105.625C141.922 106.802 140.354 107.615 138.75 108.062C138.167 108.219 137.552 108.297 136.906 108.297C136.271 108.297 135.646 108.208 135.031 108.031C134.427 107.854 133.901 107.568 133.453 107.172C132.495 106.328 132.016 105.026 132.016 103.266V94.0938ZM162.703 94.5C162.703 92.8958 162.036 91.8333 160.703 91.3125C160.276 91.1458 159.812 91.0625 159.312 91.0625C158.823 91.0625 158.365 91.1042 157.938 91.1875C157.521 91.2708 157.151 91.401 156.828 91.5781C156.099 91.974 155.734 92.5417 155.734 93.2812C155.734 93.9896 156.036 94.6042 156.641 95.125C157.307 95.6771 158.547 96.3594 160.359 97.1719C162.172 97.974 163.568 98.8542 164.547 99.8125C165.536 100.76 166.031 101.854 166.031 103.094C166.031 104.49 165.458 105.667 164.312 106.625C162.969 107.74 161.109 108.297 158.734 108.297C155.828 108.297 153.818 107.677 152.703 106.438C152.318 106 152.125 105.443 152.125 104.766C152.125 103.13 152.526 102.177 153.328 101.906C153.526 101.844 153.714 101.812 153.891 101.812C154.38 101.812 154.646 101.964 154.688 102.266C154.917 104.87 156.375 106.172 159.062 106.172C160.677 106.172 161.755 105.719 162.297 104.812C162.474 104.521 162.562 104.167 162.562 103.75C162.562 103.333 162.427 102.953 162.156 102.609C161.896 102.266 161.531 101.948 161.062 101.656C160.594 101.354 160.036 101.062 159.391 100.781L157.312 99.8438C154.125 98.3854 152.531 96.4479 152.531 94.0312C152.531 92.4688 153.224 91.2188 154.609 90.2812C155.922 89.3958 157.615 88.9531 159.688 88.9531C162.5 88.9531 164.25 89.5625 164.938 90.7812C165.115 91.0938 165.203 91.4375 165.203 91.8125C165.203 92.1875 165.182 92.526 165.141 92.8281C165.099 93.1198 165.047 93.3854 164.984 93.625C164.88 94.0833 164.76 94.4062 164.625 94.5938C164.354 94.7917 163.964 94.8906 163.453 94.8906C162.953 94.8906 162.703 94.7604 162.703 94.5ZM158.844 86.9531C158.552 86.9531 158.312 86.8646 158.125 86.6875C157.812 86.4062 157.656 86.2135 157.656 86.1094C157.656 85.9115 157.688 85.7708 157.75 85.6875L162.75 80.7031C162.979 80.474 163.245 80.3594 163.547 80.3594C163.859 80.3594 164.177 80.4531 164.5 80.6406C164.823 80.8177 165.12 81.0417 165.391 81.3125C165.984 81.9271 166.281 82.4792 166.281 82.9688C166.281 83.2188 166.177 83.3958 165.969 83.5L158.844 86.9531ZM177.812 108.078C177.604 108.026 177.271 108 176.812 108H171.828C170.828 108 170.188 107.823 169.906 107.469C169.792 107.333 169.734 107.177 169.734 107C169.734 106.562 169.818 106.24 169.984 106.031C170.234 106.115 170.516 106.156 170.828 106.156C171.151 106.156 171.391 106.026 171.547 105.766C171.714 105.505 171.792 105.021 171.781 104.312V94.0938C171.781 93.1146 171.599 92.5052 171.234 92.2656C171.089 92.1719 170.896 92.125 170.656 92.125C170.417 92.125 170.224 92.1615 170.078 92.2344C169.943 92.3073 169.828 92.3594 169.734 92.3906C169.651 92.4219 169.578 92.4219 169.516 92.3906C169.453 92.349 169.391 92.2917 169.328 92.2188C169.172 92.0521 169.094 91.8802 169.094 91.7031C169.094 91.5156 169.156 91.3229 169.281 91.125C169.417 90.9167 169.63 90.6823 169.922 90.4219C170.214 90.151 170.547 89.9062 170.922 89.6875C171.766 89.1979 172.609 88.9531 173.453 88.9531C174.38 88.9531 174.938 89.5417 175.125 90.7188C175.188 91.0729 175.229 91.4375 175.25 91.8125C176.812 90.5729 178.448 89.7083 180.156 89.2188C180.781 89.0417 181.385 88.9531 181.969 88.9531C184.448 88.9531 186.016 89.9323 186.672 91.8906C188.297 90.599 189.948 89.7083 191.625 89.2188C192.26 89.0417 192.906 88.9531 193.562 88.9531C194.219 88.9531 194.849 89.0417 195.453 89.2188C196.068 89.3958 196.594 89.6823 197.031 90.0781C197.99 90.9323 198.469 92.2344 198.469 93.9844V104.469C198.469 105.323 198.76 105.854 199.344 106.062C199.51 106.125 199.708 106.177 199.938 106.219C200.167 106.26 200.375 106.312 200.562 106.375C200.75 106.427 200.896 106.49 201 106.562C201.177 106.698 201.266 106.917 201.266 107.219C201.266 107.583 201.182 107.87 201.016 108.078C200.807 108.026 200.474 108 200.016 108H195.031C194.031 108 193.391 107.823 193.109 107.469C192.995 107.333 192.938 107.177 192.938 107C192.938 106.562 193.021 106.24 193.188 106.031C193.438 106.115 193.714 106.156 194.016 106.156C194.318 106.156 194.547 106.057 194.703 105.859C194.87 105.651 194.964 105.271 194.984 104.719V95.0938C194.984 93.3229 194.458 92.3333 193.406 92.125C193.083 92.0625 192.698 92.0312 192.25 92.0312C191.812 92.0312 191.333 92.0885 190.812 92.2031C190.302 92.3073 189.812 92.4531 189.344 92.6406C188.438 93.0052 187.646 93.4688 186.969 94.0312V104.469C186.969 105.333 187.26 105.865 187.844 106.062C188.01 106.125 188.208 106.177 188.438 106.219C188.667 106.26 188.87 106.312 189.047 106.375C189.234 106.427 189.38 106.49 189.484 106.562C189.661 106.698 189.75 106.917 189.75 107.219C189.75 107.594 189.672 107.88 189.516 108.078C189.307 108.026 188.974 108 188.516 108H183.531C182.531 108 181.891 107.823 181.609 107.469C181.495 107.333 181.438 107.177 181.438 107C181.438 106.552 181.516 106.229 181.672 106.031C181.932 106.115 182.214 106.156 182.516 106.156C182.818 106.156 183.047 106.047 183.203 105.828C183.37 105.609 183.464 105.208 183.484 104.625V95.0938C183.484 93.3229 182.958 92.3333 181.906 92.125C181.583 92.0625 181.193 92.0312 180.734 92.0312C180.276 92.0312 179.776 92.0938 179.234 92.2188C178.693 92.3438 178.177 92.5104 177.688 92.7188C176.75 93.1042 175.943 93.5938 175.266 94.1875V104.469C175.266 105.323 175.562 105.854 176.156 106.062C176.312 106.125 176.505 106.177 176.734 106.219C176.964 106.26 177.172 106.312 177.359 106.375C177.547 106.427 177.693 106.49 177.797 106.562C177.974 106.698 178.062 106.917 178.062 107.219C178.062 107.583 177.979 107.87 177.812 108.078ZM207.266 86.0469C206.911 86.0469 206.583 85.9948 206.281 85.8906C205.99 85.776 205.734 85.6146 205.516 85.4062C205.057 84.9688 204.828 84.3802 204.828 83.6406C204.828 82.9323 205.099 82.3333 205.641 81.8438C206.161 81.3542 206.786 81.1094 207.516 81.1094C208.245 81.1094 208.828 81.3281 209.266 81.7656C209.703 82.2031 209.922 82.7969 209.922 83.5469C209.922 84.2552 209.661 84.8542 209.141 85.3438C208.63 85.8125 208.005 86.0469 207.266 86.0469ZM206.312 108C204.708 108 203.906 107.635 203.906 106.906C203.906 106.531 203.99 106.24 204.156 106.031C204.406 106.115 204.635 106.156 204.844 106.156C205.812 106.156 206.286 105.542 206.266 104.312V93.8438C206.266 93.1146 206.161 92.6094 205.953 92.3281C205.755 92.0365 205.396 91.8906 204.875 91.8906C204.49 91.8906 204.141 91.9375 203.828 92.0312C203.641 92.0521 203.505 91.9062 203.422 91.5938C203.349 91.3125 203.391 91.0677 203.547 90.8594C203.703 90.6406 203.943 90.4167 204.266 90.1875C204.599 89.9479 204.964 89.7396 205.359 89.5625C206.214 89.1562 206.927 88.9531 207.5 88.9531C208.073 88.9531 208.495 89.0365 208.766 89.2031C209.047 89.3698 209.26 89.5938 209.406 89.875C209.635 90.3333 209.75 91.0729 209.75 92.0938V104.578C209.781 105.401 210.078 105.901 210.641 106.078C210.797 106.13 210.99 106.177 211.219 106.219C211.448 106.26 211.651 106.312 211.828 106.375C212.016 106.427 212.161 106.49 212.266 106.562C212.443 106.698 212.531 106.917 212.531 107.219C212.531 107.594 212.453 107.88 212.297 108.078C212.078 108.026 211.745 108 211.297 108H206.312ZM214.844 99.5938C214.844 98.3333 214.974 97.2135 215.234 96.2344C215.495 95.2552 215.844 94.3802 216.281 93.6094C216.729 92.8281 217.25 92.1458 217.844 91.5625C218.448 90.9792 219.094 90.4948 219.781 90.1094C221.135 89.3385 222.469 88.9531 223.781 88.9531C225.094 88.9531 226.146 89.1875 226.938 89.6562C227.729 90.1146 228.375 90.7292 228.875 91.5C229.802 92.9688 230.266 94.9219 230.266 97.3594C230.266 98.2656 229.885 98.7292 229.125 98.75L218.219 98.9844C218.281 101.245 218.865 102.917 219.969 104C220.906 104.917 222.12 105.375 223.609 105.375C225.828 105.375 227.63 104.911 229.016 103.984C229.109 103.984 229.224 104.062 229.359 104.219C229.62 104.531 229.75 104.802 229.75 105.031C229.75 105.531 229.125 106.172 227.875 106.953C226.438 107.849 224.76 108.297 222.844 108.297C220.344 108.297 218.38 107.5 216.953 105.906C215.547 104.344 214.844 102.24 214.844 99.5938ZM218.312 96.9688C221.312 96.8229 224.057 96.6302 226.547 96.3906C226.661 93.0781 225.516 91.4219 223.109 91.4219C221.766 91.4219 220.667 91.9427 219.812 92.9844C219.031 93.9427 218.531 95.2708 218.312 96.9688ZM244.969 94.6562L244.984 94.0938C244.984 93.8958 244.938 93.5625 244.844 93.0938C244.75 92.6146 244.448 92.224 243.938 91.9219C243.438 91.6198 242.797 91.4688 242.016 91.4688C241.245 91.4688 240.557 91.6667 239.953 92.0625C239.359 92.4479 238.875 92.9688 238.5 93.625C237.792 94.875 237.438 96.5469 237.438 98.6406C237.438 100.62 237.917 102.229 238.875 103.469C239.854 104.74 241.146 105.375 242.75 105.375C244.208 105.375 245.604 104.974 246.938 104.172C247.26 103.974 247.51 103.802 247.688 103.656C247.792 103.656 247.911 103.74 248.047 103.906C248.307 104.208 248.438 104.453 248.438 104.641C248.438 104.818 248.365 105.026 248.219 105.266C248.073 105.495 247.859 105.745 247.578 106.016C247.307 106.276 246.979 106.542 246.594 106.812C246.208 107.083 245.776 107.328 245.297 107.547C244.203 108.047 243.083 108.297 241.938 108.297C240.792 108.297 239.719 108.104 238.719 107.719C237.729 107.323 236.875 106.745 236.156 105.984C234.615 104.37 233.844 102.151 233.844 99.3281C233.844 96.1198 234.823 93.5417 236.781 91.5938C238.562 89.8333 240.62 88.9531 242.953 88.9531C244.484 88.9531 245.76 89.2812 246.781 89.9375C247.854 90.625 248.391 91.5312 248.391 92.6562C248.391 93.2708 248.255 93.7344 247.984 94.0469C247.516 94.599 246.969 94.875 246.344 94.875C245.729 94.875 245.271 94.8021 244.969 94.6562ZM259.953 108.078C259.745 108.026 259.411 108 258.953 108H253.969C252.969 108 252.328 107.823 252.047 107.469C251.932 107.333 251.875 107.177 251.875 107C251.875 106.562 251.958 106.24 252.125 106.031C252.375 106.115 252.661 106.156 252.984 106.156C253.307 106.156 253.547 106.026 253.703 105.766C253.859 105.505 253.932 105.021 253.922 104.312V84.9531C253.922 84.2344 253.849 83.7708 253.703 83.5625C253.484 83.2292 253.099 83.0625 252.547 83.0625H252.234C252.141 83.0625 252.031 83.0781 251.906 83.1094C251.792 83.1302 251.693 83.1198 251.609 83.0781C251.526 83.026 251.453 82.9583 251.391 82.875C251.172 82.5521 251.422 82.1146 252.141 81.5625C253.193 80.7604 254.266 80.3594 255.359 80.3594C256.547 80.3594 257.214 81 257.359 82.2812C257.401 82.6667 257.422 83.0729 257.422 83.5V92.0156C258.995 90.6927 260.677 89.7708 262.469 89.25C263.125 89.0521 263.786 88.9531 264.453 88.9531C265.13 88.9531 265.771 89.0417 266.375 89.2188C266.99 89.3958 267.516 89.6823 267.953 90.0781C268.911 90.9323 269.391 92.2344 269.391 93.9844V104.469C269.391 105.333 269.682 105.865 270.266 106.062C270.432 106.125 270.63 106.177 270.859 106.219C271.089 106.26 271.292 106.312 271.469 106.375C271.656 106.427 271.802 106.49 271.906 106.562C272.083 106.698 272.172 106.917 272.172 107.219C272.172 107.594 272.094 107.88 271.938 108.078C271.719 108.026 271.385 108 270.938 108H265.953C264.953 108 264.312 107.823 264.031 107.469C263.917 107.333 263.859 107.177 263.859 107C263.859 106.552 263.938 106.229 264.094 106.031C264.354 106.115 264.635 106.156 264.938 106.156C265.24 106.156 265.469 106.047 265.625 105.828C265.792 105.609 265.885 105.208 265.906 104.625V95.0938C265.906 93.3229 265.38 92.3333 264.328 92.125C264.005 92.0625 263.599 92.0312 263.109 92.0312C262.63 92.0312 262.099 92.1042 261.516 92.25C260.943 92.3958 260.401 92.5833 259.891 92.8125C258.88 93.2708 258.057 93.8177 257.422 94.4531V104.469C257.422 105.333 257.714 105.865 258.297 106.062C258.464 106.125 258.661 106.177 258.891 106.219C259.12 106.26 259.323 106.312 259.5 106.375C259.688 106.427 259.833 106.49 259.938 106.562C260.115 106.698 260.203 106.917 260.203 107.219C260.203 107.583 260.12 107.87 259.953 108.078Z" fill="#5385D1"/>
</svg>
