<svg width="212" height="85" viewBox="0 0 212 85" fill="none" xmlns="http://www.w3.org/2000/svg">
<path d="M46.2105 6.09727L45.0399 5.18722C47.7133 3.44679 50.8463 2.5 54.0607 2.5C63.1448 2.5 70.5 9.84507 70.5 18.8883V19.2865C70.5 21.9027 69.9023 24.4738 68.7337 26.7884L68.7296 26.7966L64.2669 35.7168C64.266 35.7187 64.265 35.7206 64.2641 35.7225C63.2945 37.6363 62.633 39.6661 62.2506 41.7424L62.2506 41.7424L62.2483 41.7551L55.2698 80.7827C55.2698 80.7829 55.2697 80.7831 55.2697 80.7833C55.1002 81.7284 54.2795 82.4448 53.2879 82.4798C52.3302 82.5136 51.4673 81.8585 51.2462 80.9172L51.244 80.908L45.7486 57.9045L45.7471 57.8982C44.7161 53.631 40.8999 50.6185 36.5095 50.6185C32.113 50.6185 28.3069 53.6356 27.2555 57.9067L27.2534 57.9151L27.2514 57.9234L21.756 80.9269L21.7549 80.9313C21.5329 81.868 20.6594 82.5322 19.7121 82.4988C18.7203 82.4638 17.8995 81.7471 17.7302 80.8017L10.7517 41.7741L10.7517 41.7741L10.7494 41.7613C10.367 39.6852 9.70558 37.6556 8.73614 35.7419C8.73512 35.7398 8.73409 35.7378 8.73306 35.7358L4.27581 26.8264C4.27497 26.8247 4.27412 26.823 4.27328 26.8213C3.1097 24.4653 2.5 21.9058 2.5 19.3055V18.1297C2.5 9.50371 9.49391 2.51896 18.1597 2.51896C21.617 2.51896 24.9824 3.66836 27.736 5.77968L27.7316 5.7866L34.7669 11.248L34.7673 11.2483L39.4067 14.8512L39.4157 14.8581C41.8145 16.7036 45.3071 16.3172 47.196 13.8752C49.0506 11.4776 48.6606 7.98712 46.2162 6.10161C46.2143 6.10016 46.2124 6.09872 46.2105 6.09727Z" stroke="#5385D1" stroke-width="5"/>
<path d="M32.2236 25.7256C32.2236 23.4893 31.4277 22.0879 29.8359 21.5215C29.2891 21.3262 28.6494 21.2285 27.917 21.2285C27.1846 21.2285 26.5547 21.3115 26.0273 21.4775C25.5 21.6436 25.0605 21.8682 24.709 22.1514C23.9961 22.7275 23.6396 23.4893 23.6396 24.4365C23.6396 25.8721 24.6943 27.0977 26.8037 28.1133L28.6348 28.9775C29.5234 29.3877 30.3779 29.8076 31.1982 30.2373C32.0283 30.6572 32.7607 31.1406 33.3955 31.6875C34.792 32.8789 35.4902 34.3535 35.4902 36.1113C35.4902 37.9961 34.6699 39.5146 33.0293 40.667C31.4961 41.7412 29.5723 42.2783 27.2578 42.2783C25.4219 42.2783 23.8008 41.9902 22.3945 41.4141C21.3594 41.0039 20.6221 40.4229 20.1826 39.6709C19.958 39.29 19.8457 38.8262 19.8457 38.2793C19.8457 37.1855 20.1191 36.165 20.666 35.2178C20.8516 34.9932 21.1055 34.8809 21.4277 34.8809C22.0527 34.8809 22.4141 35.0664 22.5117 35.4375C22.6387 37.127 23.1562 38.3574 24.0645 39.1289C24.9824 39.9004 26.2617 40.2861 27.9023 40.2861C29.7871 40.2861 31.0518 39.6709 31.6963 38.4404C31.9209 38.0107 32.0332 37.5078 32.0332 36.9316C32.0332 36.3457 31.877 35.8232 31.5645 35.3643C31.252 34.9053 30.8369 34.4805 30.3193 34.0898C29.5283 33.5039 28.4785 32.9375 27.1699 32.3906C25.8711 31.8438 24.8555 31.3652 24.123 30.9551C23.4004 30.5449 22.7607 30.0664 22.2041 29.5195C20.9932 28.3281 20.3877 26.8584 20.3877 25.1104C20.3877 23.3232 21.1543 21.8926 22.6875 20.8184C24.1621 19.7832 26.0664 19.2656 28.4004 19.2656C31.3594 19.2656 33.293 19.876 34.2012 21.0967C34.5332 21.5361 34.6992 22.1123 34.6992 22.8252C34.6992 23.5381 34.6309 24.1582 34.4941 24.6855C34.3672 25.2129 34.2402 25.5547 34.1133 25.7109C33.8984 25.9746 33.5273 26.1064 33 26.1064C32.4824 26.1064 32.2236 25.9795 32.2236 25.7256ZM51.1201 36.9463C51.1396 36.7314 51.4326 36.624 51.999 36.624C52.2627 36.624 52.4336 36.6777 52.5117 36.7852C52.5898 36.8828 52.6777 37.0488 52.7754 37.2832C52.873 37.5078 52.9609 37.7715 53.0391 38.0742C53.2148 38.7578 53.3027 39.4316 53.3027 40.0957C53.3027 40.7598 53.1318 41.2432 52.79 41.5459C52.4482 41.8486 51.8916 42 51.1201 42H40.9395C40.3145 42 39.8311 41.7412 39.4893 41.2236C39.167 40.9014 39.0059 40.4668 39.0059 39.9199C39.0059 39.6172 39.0693 39.4023 39.1963 39.2754C43.0049 34.6074 45.29 31.7705 46.0518 30.7646C46.8135 29.7588 47.3945 28.9531 47.7949 28.3477C48.1953 27.7422 48.4883 27.3223 48.6738 27.0879L49.2451 26.3555L44.4844 26.5166C43.6152 26.5557 42.9658 26.7559 42.5361 27.1172C42.1064 27.4785 41.8965 28.0791 41.9062 28.9189C41.8867 29.124 41.623 29.2266 41.1152 29.2266C40.8516 29.2266 40.6807 29.1777 40.6025 29.0801C40.5244 28.9727 40.4268 28.8359 40.3096 28.6699C40.2021 28.4941 40.0996 28.2891 40.002 28.0547C39.7773 27.5273 39.665 26.9414 39.665 26.2969C39.665 25.6523 39.8213 25.1787 40.1338 24.876C40.4561 24.5732 41.0029 24.4219 41.7744 24.4219H51.8086C52.2578 24.4219 52.5898 24.8906 52.8047 25.8281C52.8633 26.0625 52.8926 26.2627 52.8926 26.4287C52.8926 26.5947 52.8535 26.7314 52.7754 26.8389L50.4756 29.9004L45.7148 35.9941C44.9336 37 44.3379 37.7959 43.9277 38.3818C43.5273 38.9678 43.2539 39.3535 43.1074 39.5391L42.6826 40.0811L48.542 39.8613C49.4209 39.8125 50.0703 39.5244 50.4902 38.9971C50.9199 38.46 51.1299 37.7764 51.1201 36.9463Z" fill="#5385D1"/>
<path d="M88.0996 29.4902L88.1143 28.9629C88.1143 28.7773 88.0703 28.4648 87.9824 28.0254C87.8945 27.5762 87.6113 27.21 87.1328 26.9268C86.6641 26.6436 86.0635 26.502 85.3311 26.502C84.6084 26.502 83.9639 26.6875 83.3975 27.0586C82.8408 27.4199 82.3867 27.9082 82.0352 28.5234C81.3711 29.6953 81.0391 31.2627 81.0391 33.2256C81.0391 35.0811 81.4883 36.5898 82.3867 37.752C83.3047 38.9434 84.5156 39.5391 86.0195 39.5391C87.3867 39.5391 88.6953 39.1631 89.9453 38.4111C90.248 38.2256 90.4824 38.0645 90.6484 37.9277C90.7461 37.9277 90.8584 38.0059 90.9854 38.1621C91.2295 38.4453 91.3516 38.6748 91.3516 38.8506C91.3516 39.0166 91.2832 39.2119 91.1465 39.4365C91.0098 39.6514 90.8096 39.8857 90.5459 40.1396C90.292 40.3838 89.9844 40.6328 89.623 40.8867C89.2617 41.1406 88.8564 41.3701 88.4072 41.5752C87.3818 42.0439 86.332 42.2783 85.2578 42.2783C84.1836 42.2783 83.1777 42.0977 82.2402 41.7363C81.3125 41.3652 80.5117 40.8232 79.8379 40.1104C78.3926 38.5967 77.6699 36.5166 77.6699 33.8701C77.6699 30.8623 78.5879 28.4453 80.4238 26.6191C82.0938 24.9688 84.0225 24.1436 86.21 24.1436C87.6455 24.1436 88.8418 24.4512 89.7988 25.0664C90.8047 25.7109 91.3076 26.5605 91.3076 27.6152C91.3076 28.1914 91.1807 28.626 90.9268 28.9189C90.4873 29.4365 89.9746 29.6953 89.3887 29.6953C88.8125 29.6953 88.3828 29.627 88.0996 29.4902ZM106.366 36.9463C106.386 36.7314 106.679 36.624 107.245 36.624C107.509 36.624 107.68 36.6777 107.758 36.7852C107.836 36.8828 107.924 37.0488 108.021 37.2832C108.119 37.5078 108.207 37.7715 108.285 38.0742C108.461 38.7578 108.549 39.4316 108.549 40.0957C108.549 40.7598 108.378 41.2432 108.036 41.5459C107.694 41.8486 107.138 42 106.366 42H96.1855C95.5605 42 95.0771 41.7412 94.7354 41.2236C94.4131 40.9014 94.252 40.4668 94.252 39.9199C94.252 39.6172 94.3154 39.4023 94.4424 39.2754C98.251 34.6074 100.536 31.7705 101.298 30.7646C102.06 29.7588 102.641 28.9531 103.041 28.3477C103.441 27.7422 103.734 27.3223 103.92 27.0879L104.491 26.3555L99.7305 26.5166C98.8613 26.5557 98.2119 26.7559 97.7822 27.1172C97.3525 27.4785 97.1426 28.0791 97.1523 28.9189C97.1328 29.124 96.8691 29.2266 96.3613 29.2266C96.0977 29.2266 95.9268 29.1777 95.8486 29.0801C95.7705 28.9727 95.6729 28.8359 95.5557 28.6699C95.4482 28.4941 95.3457 28.2891 95.248 28.0547C95.0234 27.5273 94.9111 26.9414 94.9111 26.2969C94.9111 25.6523 95.0674 25.1787 95.3799 24.876C95.7021 24.5732 96.249 24.4219 97.0205 24.4219H107.055C107.504 24.4219 107.836 24.8906 108.051 25.8281C108.109 26.0625 108.139 26.2627 108.139 26.4287C108.139 26.5947 108.1 26.7314 108.021 26.8389L105.722 29.9004L100.961 35.9941C100.18 37 99.584 37.7959 99.1738 38.3818C98.7734 38.9678 98.5 39.3535 98.3535 39.5391L97.9287 40.0811L103.788 39.8613C104.667 39.8125 105.316 39.5244 105.736 38.9971C106.166 38.46 106.376 37.7764 106.366 36.9463ZM111.391 34.1191C111.391 32.9375 111.513 31.8877 111.757 30.9697C112.001 30.0518 112.328 29.2314 112.738 28.5088C113.158 27.7764 113.646 27.1367 114.203 26.5898C114.77 26.043 115.375 25.5889 116.02 25.2275C117.289 24.5049 118.539 24.1436 119.77 24.1436C121 24.1436 121.986 24.3633 122.729 24.8027C123.471 25.2324 124.076 25.8086 124.545 26.5312C125.414 27.9082 125.849 29.7393 125.849 32.0244C125.849 32.874 125.492 33.3086 124.779 33.3281L114.555 33.5479C114.613 35.667 115.16 37.2344 116.195 38.25C117.074 39.1094 118.212 39.5391 119.608 39.5391C121.688 39.5391 123.378 39.1045 124.677 38.2354C124.765 38.2354 124.872 38.3086 124.999 38.4551C125.243 38.748 125.365 39.002 125.365 39.2168C125.365 39.6855 124.779 40.2861 123.607 41.0186C122.26 41.8584 120.688 42.2783 118.891 42.2783C116.547 42.2783 114.706 41.5312 113.368 40.0371C112.05 38.5723 111.391 36.5996 111.391 34.1191ZM114.643 31.6582C117.455 31.5215 120.028 31.3408 122.362 31.1162C122.47 28.0107 121.396 26.458 119.14 26.458C117.88 26.458 116.85 26.9463 116.049 27.9229C115.316 28.8213 114.848 30.0664 114.643 31.6582ZM137.216 42.0732C137.011 42.0244 136.698 42 136.278 42H131.312C130.375 42 129.774 41.834 129.511 41.502C129.403 41.375 129.35 41.2285 129.35 41.0625C129.35 40.6523 129.428 40.3496 129.584 40.1543C129.818 40.2324 130.033 40.2715 130.229 40.2715C130.434 40.2715 130.604 40.2471 130.741 40.1982C130.878 40.1396 130.985 40.0469 131.063 39.9199C131.2 39.6855 131.269 39.2266 131.269 38.543V28.9629C131.269 28.0449 131.098 27.4736 130.756 27.249C130.619 27.1611 130.438 27.1172 130.214 27.1172C129.989 27.1172 129.809 27.1514 129.672 27.2197C129.545 27.2881 129.438 27.3369 129.35 27.3662C129.271 27.3955 129.203 27.3955 129.145 27.3662C129.086 27.3271 129.027 27.2734 128.969 27.2051C128.822 27.0293 128.749 26.8633 128.749 26.707C128.749 26.541 128.808 26.3652 128.925 26.1797C129.052 25.9844 129.252 25.7646 129.525 25.5205C129.799 25.2666 130.111 25.0371 130.463 24.832C131.254 24.373 132.045 24.1436 132.836 24.1436C133.734 24.1436 134.267 24.7295 134.433 25.9014C134.481 26.2432 134.511 26.5996 134.521 26.9707C135.946 25.7109 137.416 24.8467 138.93 24.3779C139.438 24.2217 139.896 24.1436 140.307 24.1436C140.727 24.1436 141.068 24.2021 141.332 24.3193C141.605 24.4365 141.82 24.5977 141.977 24.8027C142.27 25.2031 142.416 25.7158 142.416 26.3408C142.416 26.9658 142.387 27.4639 142.328 27.835C142.27 28.2061 142.196 28.5332 142.108 28.8164C141.933 29.3926 141.767 29.7588 141.61 29.915C141.337 30.1982 140.971 30.3398 140.512 30.3398C140.043 30.3398 139.809 30.2031 139.809 29.9297C139.809 28.8848 139.765 28.2158 139.677 27.9229C139.511 27.3857 139.198 27.1172 138.739 27.1172C138.28 27.1172 137.865 27.1709 137.494 27.2783C137.123 27.376 136.762 27.5127 136.41 27.6885C135.697 28.04 135.072 28.4941 134.535 29.0508V38.792C134.564 39.5635 134.901 40.0322 135.546 40.1982C135.731 40.2471 135.941 40.291 136.176 40.3301C136.41 40.3691 136.61 40.418 136.776 40.4766C136.952 40.5254 137.089 40.584 137.187 40.6523C137.353 40.7793 137.436 40.9844 137.436 41.2676C137.436 41.6191 137.362 41.8877 137.216 42.0732ZM149.33 26.1943C150.795 24.8271 152.431 24.1436 154.237 24.1436C156.229 24.1436 157.851 24.832 159.101 26.209C160.468 27.6934 161.151 29.7637 161.151 32.4199C161.151 35.4082 160.214 37.8301 158.339 39.6855C156.571 41.4141 154.481 42.2783 152.069 42.2783C150.497 42.2783 148.93 41.9219 147.367 41.209C146.859 40.9844 146.425 40.7256 146.063 40.4326V20.3936C146.063 19.7197 145.995 19.2852 145.858 19.0898C145.653 18.7773 145.292 18.6211 144.774 18.6211C144.54 18.6211 144.32 18.6455 144.115 18.6943C143.91 18.7334 143.769 18.7334 143.69 18.6943C143.612 18.6455 143.544 18.582 143.485 18.5039C143.28 18.1914 143.524 17.7812 144.218 17.2734C145.292 16.4824 146.352 16.0869 147.396 16.0869C148.51 16.0869 149.135 16.6875 149.271 17.8887C149.311 18.25 149.33 18.6309 149.33 19.0312V26.1943ZM149.33 28.5234V38.792C150.248 39.5537 151.347 39.9346 152.626 39.9346C154.14 39.9346 155.37 39.373 156.317 38.25C157.323 37.0586 157.826 35.4229 157.826 33.3428C157.826 31.1553 157.382 29.5098 156.493 28.4062C155.702 27.4004 154.594 26.8975 153.168 26.8975C151.752 26.8975 150.473 27.4395 149.33 28.5234ZM174.335 40.1396C172.909 41.5654 171.186 42.2783 169.164 42.2783C167.602 42.2783 166.352 41.8291 165.414 40.9307C164.467 40.0225 163.993 38.8457 163.993 37.4004C163.993 35.6035 164.794 34.2559 166.396 33.3574C167.841 32.5371 169.877 32.127 172.504 32.127H174.335C174.345 31.7559 174.35 31.3945 174.35 31.043V29.9443C174.35 28.6357 174.159 27.7129 173.778 27.1758C173.349 26.5703 172.616 26.2676 171.581 26.2676C169.208 26.2676 167.987 27.1172 167.919 28.8164C167.909 29.0801 167.914 29.2998 167.934 29.4756C167.738 29.6318 167.406 29.71 166.938 29.71C166.479 29.71 166.142 29.6562 165.927 29.5488C165.722 29.4414 165.541 29.2949 165.385 29.1094C165.053 28.7285 164.887 28.2451 164.887 27.6592C164.887 27.0635 165.058 26.5459 165.399 26.1064C165.751 25.6572 166.225 25.291 166.82 25.0078C167.982 24.4316 169.354 24.1436 170.937 24.1436C172.519 24.1436 173.705 24.2998 174.496 24.6123C175.297 24.915 175.932 25.3203 176.4 25.8281C177.23 26.7266 177.646 27.9326 177.646 29.4463L177.499 36.4775C177.499 37.7568 177.558 38.5674 177.675 38.9092C177.802 39.251 177.948 39.4805 178.114 39.5977C178.29 39.7148 178.5 39.7734 178.744 39.7734C178.998 39.7734 179.203 39.7344 179.359 39.6562L179.77 39.4658C179.906 39.417 180.023 39.4756 180.121 39.6416C180.229 39.7979 180.282 39.9395 180.282 40.0664C180.282 40.1836 180.229 40.3398 180.121 40.5352C180.023 40.7305 179.833 40.9404 179.55 41.165C179.276 41.3799 178.964 41.5703 178.612 41.7363C176.669 42.6543 175.346 42.4395 174.643 41.0918C174.496 40.8281 174.394 40.5107 174.335 40.1396ZM174.291 38.2207C174.291 36.8145 174.301 35.418 174.32 34.0312C172.289 34.1094 170.907 34.2412 170.175 34.4268C169.452 34.6025 168.93 34.7734 168.607 34.9395C168.285 35.1055 168.031 35.3008 167.846 35.5254C167.543 35.8965 167.392 36.458 167.392 37.21C167.392 37.9521 167.655 38.5479 168.183 38.9971C168.71 39.4365 169.467 39.6562 170.453 39.6562C171.85 39.6562 173.129 39.1777 174.291 38.2207Z" fill="#464646"/>
<path d="M187.299 32.0098L187.284 35.8623C187.284 37.4736 187.367 38.4453 187.533 38.7773C187.699 39.0996 187.895 39.2949 188.119 39.3633C188.344 39.4219 188.632 39.4512 188.983 39.4512C189.335 39.4512 189.652 39.4268 189.936 39.3779C190.229 39.3193 190.502 39.2461 190.756 39.1582C191.01 39.0703 191.254 38.9727 191.488 38.8652L192.206 38.5576C192.372 38.499 192.558 38.6699 192.763 39.0703C192.821 39.1777 192.851 39.3047 192.851 39.4512C192.851 39.5879 192.792 39.7686 192.675 39.9932C192.558 40.2178 192.328 40.4766 191.986 40.7695C191.654 41.0527 191.264 41.3066 190.814 41.5312C189.838 42.0293 188.959 42.2783 188.178 42.2783C187.406 42.2783 186.776 42.2344 186.288 42.1465C185.8 42.0586 185.385 41.8828 185.043 41.6191C184.34 41.0723 183.988 40.0713 183.988 38.6162V27.0879H182.538C182.235 27.0879 182.016 26.9902 181.879 26.7949C181.645 26.4922 181.527 26.2383 181.527 26.0332C181.527 25.6914 181.61 25.501 181.776 25.4619C183.329 25.1982 184.428 24.0459 185.072 22.0049C185.258 21.3896 185.404 20.6621 185.512 19.8223C185.98 19.7441 186.332 19.7051 186.566 19.7051C186.811 19.7051 187.021 19.8271 187.196 20.0713C187.372 20.3154 187.455 20.5986 187.445 20.9209C187.445 21.2432 187.44 21.5459 187.431 21.8291C187.421 22.1123 187.411 22.4199 187.401 22.752L187.343 24.8027H192.411C192.538 25.0273 192.602 25.2666 192.602 25.5205V25.9746C192.602 26.3848 192.382 26.7217 191.942 26.9854C191.503 27.2393 191.015 27.3662 190.478 27.3662C189.95 27.3662 189.569 27.3613 189.335 27.3516C189.11 27.332 188.891 27.3125 188.676 27.293L188.031 27.2051C187.807 27.1855 187.567 27.166 187.313 27.1465V27.3076L187.299 32.0098ZM194.564 26.502L194.257 26.5605C194.042 26.5605 193.891 26.4141 193.803 26.1211C193.773 26.043 193.759 25.9307 193.759 25.7842C193.759 25.6377 193.842 25.457 194.008 25.2422C194.174 25.0273 194.389 24.8418 194.652 24.6855C195.238 24.3242 195.858 24.1436 196.513 24.1436C197.03 24.1436 197.401 24.2168 197.626 24.3633C198.065 24.6367 198.407 25.1934 198.651 26.0332L203.119 38.9971C204.037 36.9561 204.667 35.5107 205.009 34.6611L205.902 32.3906C206.732 30.1641 207.147 28.7139 207.147 28.04C207.147 27.3564 207.03 26.8584 206.796 26.5459C206.562 26.2334 206.156 26.0479 205.58 25.9893C205.473 25.8721 205.419 25.7158 205.419 25.5205C205.419 25.3154 205.507 25.1299 205.683 24.9639C205.868 24.7881 206.107 24.6367 206.4 24.5098C206.996 24.2656 207.606 24.1436 208.231 24.1436C208.866 24.1436 209.315 24.1777 209.579 24.2461C209.843 24.3047 210.053 24.4072 210.209 24.5537C210.512 24.8271 210.663 25.335 210.663 26.0771C210.663 26.7412 210.141 28.4941 209.096 31.3359C208.119 33.875 207.387 35.7158 206.898 36.8584C205.102 40.8623 203.749 43.665 202.841 45.2666C201.933 46.8682 201.073 47.9766 200.263 48.5918C199.452 49.2168 198.598 49.5293 197.699 49.5293C196.801 49.5293 196.122 49.334 195.663 48.9434C195.204 48.5625 194.975 48.0352 194.975 47.3613C194.975 46.8535 195.102 46.4727 195.355 46.2188C195.834 45.7402 196.342 45.5547 196.879 45.6621C196.967 46.3945 197.406 46.7607 198.197 46.7607C198.91 46.7607 199.55 46.2969 200.116 45.3691C200.38 44.9297 200.639 44.417 200.893 43.8311L201.742 41.9414L202.035 41.3408C201.469 41.2627 200.99 40.9844 200.6 40.5059C200.443 40.3203 200.316 40.0859 200.219 39.8027L196.117 29.0361L195.766 28.1719C195.316 27.0586 194.916 26.502 194.564 26.502Z" fill="#5385D1"/>
<path d="M80.848 57.476L83.788 62H81.844L79.828 58.772L78.664 60.332V62H76.996V53.456H78.664V58.232L81.892 53.456H83.572L80.848 57.476ZM86.3565 62L84.7965 62.012V52.976H86.3565V62ZM88.8243 52.532C89.2003 52.532 89.4443 52.592 89.5563 52.712C89.6683 52.824 89.7243 53.068 89.7243 53.444C89.7243 53.812 89.6643 54.056 89.5443 54.176C89.4323 54.288 89.1883 54.344 88.8123 54.344C88.4443 54.344 88.2003 54.284 88.0803 54.164C87.9683 54.044 87.9123 53.8 87.9123 53.432C87.9123 53.064 87.9683 52.824 88.0803 52.712C88.2003 52.592 88.4483 52.532 88.8243 52.532ZM89.5923 62H88.0323V55.4H89.5923V62ZM96.6529 62H95.0929V57.62C95.0929 57.228 95.0129 56.96 94.8529 56.816C94.6929 56.672 94.4689 56.6 94.1809 56.6L92.7769 57.188V62H91.2169V55.148H92.3809L92.7409 55.964L94.6609 55.076C95.1969 55.076 95.6609 55.276 96.0529 55.676C96.4529 56.068 96.6529 56.644 96.6529 57.404V62ZM99.0078 52.532C99.3838 52.532 99.6278 52.592 99.7398 52.712C99.8518 52.824 99.9078 53.068 99.9078 53.444C99.9078 53.812 99.8478 54.056 99.7278 54.176C99.6158 54.288 99.3718 54.344 98.9958 54.344C98.6278 54.344 98.3838 54.284 98.2638 54.164C98.1518 54.044 98.0958 53.8 98.0958 53.432C98.0958 53.064 98.1518 52.824 98.2638 52.712C98.3838 52.592 98.6318 52.532 99.0078 52.532ZM99.7758 62H98.2158V55.4H99.7758V62ZM107.413 62H105.541L103.741 59.576L103.057 60.548V62H101.497V52.976H103.057V58.676L105.241 55.424H107.005L104.761 58.496L107.413 62ZM112.94 62H111.896L111.416 61.172L109.748 62.072C108.82 62.072 108.196 61.736 107.876 61.064C107.716 60.736 107.604 60.384 107.54 60.008C107.484 59.624 107.456 59.228 107.456 58.82C107.456 58.404 107.46 58.1 107.468 57.908C107.476 57.708 107.496 57.48 107.528 57.224C107.56 56.96 107.604 56.74 107.66 56.564C107.724 56.388 107.812 56.208 107.924 56.024C108.036 55.832 108.172 55.68 108.332 55.568C108.692 55.32 109.16 55.196 109.736 55.196H111.38L112.94 55.1V62ZM111.38 59.816V56.6H110.192C109.752 56.6 109.444 56.768 109.268 57.104C109.1 57.44 109.016 57.944 109.016 58.616C109.016 59.28 109.096 59.748 109.256 60.02C109.424 60.292 109.736 60.428 110.192 60.428L111.38 59.816ZM122.403 62H121.359L120.879 61.172L119.211 62.072C118.283 62.072 117.659 61.736 117.339 61.064C117.179 60.736 117.067 60.384 117.003 60.008C116.947 59.624 116.919 59.228 116.919 58.82C116.919 58.404 116.923 58.1 116.931 57.908C116.939 57.708 116.959 57.48 116.991 57.224C117.023 56.96 117.067 56.74 117.123 56.564C117.187 56.388 117.275 56.208 117.387 56.024C117.499 55.832 117.635 55.68 117.795 55.568C118.155 55.32 118.623 55.196 119.199 55.196H120.843V52.976H122.403V62ZM120.843 59.816V56.6H119.655C119.215 56.6 118.907 56.768 118.731 57.104C118.563 57.44 118.479 57.944 118.479 58.616C118.479 59.28 118.559 59.748 118.719 60.02C118.887 60.292 119.199 60.428 119.655 60.428L120.843 59.816ZM129.285 58.94H125.289C125.289 59.564 125.385 60.02 125.577 60.308C125.777 60.596 126.173 60.74 126.765 60.74C127.149 60.74 127.433 60.62 127.617 60.38C127.801 60.132 127.893 59.896 127.893 59.672H129.297C129.297 60.528 129.065 61.156 128.601 61.556C128.145 61.956 127.537 62.156 126.777 62.156C126.025 62.156 125.441 62.048 125.025 61.832C124.169 61.392 123.741 60.224 123.741 58.328C123.741 57.2 123.985 56.376 124.473 55.856C124.961 55.328 125.705 55.064 126.705 55.064C128.441 55.064 129.309 56.028 129.309 57.956C129.309 58.164 129.301 58.492 129.285 58.94ZM125.325 57.872H127.893C127.893 57.344 127.793 56.96 127.593 56.72C127.393 56.48 127.085 56.36 126.669 56.36C126.261 56.36 125.933 56.484 125.685 56.732C125.445 56.972 125.325 57.352 125.325 57.872ZM136.04 62H134.48V57.62C134.48 57.228 134.4 56.96 134.24 56.816C134.08 56.672 133.856 56.6 133.568 56.6L132.164 57.188V62H130.604V55.148H131.768L132.128 55.964L134.048 55.076C134.584 55.076 135.048 55.276 135.44 55.676C135.84 56.068 136.04 56.644 136.04 57.404V62ZM140.531 62H139.559C138.967 62 138.515 61.824 138.203 61.472C137.899 61.12 137.747 60.7 137.747 60.212V56.612H137.087V55.424H137.747V54.08H139.307V55.424H140.411V56.612H139.307V60.116C139.307 60.492 139.487 60.68 139.847 60.68H140.531V62ZM146.825 55.148L144.221 62.768C144.101 63.112 143.945 63.38 143.753 63.572C143.433 63.892 142.985 64.052 142.409 64.052H141.677V62.648H142.157C142.381 62.648 142.545 62.608 142.649 62.528C142.761 62.456 142.857 62.308 142.937 62.084L143.057 61.748L140.993 55.148H142.637L143.861 59.912L145.181 55.148H146.825ZM152.455 60.104V60.284C152.407 60.884 152.151 61.336 151.687 61.64C151.231 61.944 150.659 62.096 149.971 62.096C148.955 62.096 148.243 61.912 147.835 61.544C147.459 61.208 147.271 60.712 147.271 60.056V59.912H148.687C148.687 60.28 148.783 60.532 148.975 60.668C149.167 60.804 149.499 60.872 149.971 60.872C150.611 60.872 150.931 60.64 150.931 60.176C150.931 59.792 150.819 59.536 150.595 59.408C150.491 59.344 150.359 59.296 150.199 59.264L148.987 59.06C147.931 58.892 147.403 58.232 147.403 57.08C147.403 56.44 147.635 55.944 148.099 55.592C148.571 55.232 149.167 55.052 149.887 55.052C151.527 55.052 152.347 55.76 152.347 57.176V57.332H150.991C150.975 56.956 150.875 56.7 150.691 56.564C150.507 56.428 150.247 56.36 149.911 56.36C149.583 56.36 149.335 56.428 149.167 56.564C148.999 56.692 148.915 56.836 148.915 56.996C148.915 57.452 149.099 57.712 149.467 57.776L150.919 58.04C151.943 58.232 152.455 58.92 152.455 60.104ZM156.691 62H155.719C155.127 62 154.675 61.824 154.363 61.472C154.059 61.12 153.907 60.7 153.907 60.212V56.612H153.247V55.424H153.907V54.08H155.467V55.424H156.571V56.612H155.467V60.116C155.467 60.492 155.647 60.68 156.007 60.68H156.691V62ZM162.985 55.148L160.381 62.768C160.261 63.112 160.105 63.38 159.913 63.572C159.593 63.892 159.145 64.052 158.569 64.052H157.837V62.648H158.317C158.541 62.648 158.705 62.608 158.809 62.528C158.921 62.456 159.017 62.308 159.097 62.084L159.217 61.748L157.153 55.148H158.797L160.021 59.912L161.341 55.148H162.985ZM167.415 59.492L168.831 59.48C168.823 59.544 168.815 59.66 168.807 59.828C168.799 59.996 168.791 60.112 168.783 60.176C168.783 60.232 168.775 60.324 168.759 60.452C168.743 60.58 168.723 60.676 168.699 60.74C168.683 60.796 168.659 60.872 168.627 60.968C168.483 61.384 168.091 61.712 167.451 61.952C167.043 62.096 166.615 62.168 166.167 62.168C165.727 62.168 165.327 62.096 164.967 61.952C164.607 61.808 164.323 61.624 164.115 61.4C163.643 60.904 163.407 59.976 163.407 58.616C163.407 57.248 163.643 56.316 164.115 55.82C164.323 55.596 164.607 55.412 164.967 55.268C165.327 55.124 165.727 55.052 166.167 55.052C167.031 55.052 167.687 55.268 168.135 55.7C168.583 56.132 168.807 56.732 168.807 57.5H167.391C167.391 57.148 167.303 56.888 167.127 56.72C166.951 56.544 166.623 56.456 166.143 56.456C165.671 56.456 165.355 56.604 165.195 56.9C165.043 57.196 164.967 57.64 164.967 58.232V58.856C164.967 59.808 165.151 60.392 165.519 60.608C165.687 60.712 165.907 60.764 166.179 60.764C166.451 60.764 166.671 60.74 166.839 60.692C167.015 60.636 167.139 60.544 167.211 60.416C167.291 60.288 167.343 60.164 167.367 60.044C167.391 59.916 167.407 59.732 167.415 59.492ZM174.466 62H170.734C170.326 62 170.01 61.916 169.786 61.748C169.57 61.572 169.462 61.328 169.462 61.016C169.462 60.704 169.594 60.376 169.858 60.032L172.714 56.492H169.858V55.148H174.586V56.336L171.178 60.656H174.466V62ZM181.18 62H179.62V57.62C179.62 57.228 179.54 56.96 179.38 56.816C179.22 56.672 178.996 56.6 178.708 56.6L177.304 57.188V62H175.744V55.148H176.908L177.268 55.964L179.188 55.076C179.724 55.076 180.188 55.276 180.58 55.676C180.98 56.068 181.18 56.644 181.18 57.404V62ZM187.459 62H186.415L185.935 61.172L184.267 62.072C183.339 62.072 182.715 61.736 182.395 61.064C182.235 60.736 182.123 60.384 182.059 60.008C182.003 59.624 181.975 59.228 181.975 58.82C181.975 58.404 181.979 58.1 181.987 57.908C181.995 57.708 182.015 57.48 182.047 57.224C182.079 56.96 182.123 56.74 182.179 56.564C182.243 56.388 182.331 56.208 182.443 56.024C182.555 55.832 182.691 55.68 182.851 55.568C183.211 55.32 183.679 55.196 184.255 55.196H185.899L187.459 55.1V62ZM185.899 59.816V56.6H184.711C184.271 56.6 183.963 56.768 183.787 57.104C183.619 57.44 183.535 57.944 183.535 58.616C183.535 59.28 183.615 59.748 183.775 60.02C183.943 60.292 184.255 60.428 184.711 60.428L185.899 59.816Z" fill="#464646"/>
</svg>
