<svg width="192" height="24" viewBox="0 0 192 24" fill="none" xmlns="http://www.w3.org/2000/svg">
<path d="M31.688 10.112C31.688 11.04 31.368 11.8133 30.728 12.432C30.0987 13.04 29.1333 13.344 27.832 13.344H25.688V18H24.232V6.848H27.832C29.0907 6.848 30.0453 7.152 30.696 7.76C31.3573 8.368 31.688 9.152 31.688 10.112ZM27.832 12.144C28.6427 12.144 29.24 11.968 29.624 11.616C30.008 11.264 30.2 10.7627 30.2 10.112C30.2 8.736 29.4107 8.048 27.832 8.048H25.688V12.144H27.832ZM37.3216 18.144C36.5003 18.144 35.7536 17.9573 35.0816 17.584C34.4203 17.2107 33.8976 16.6827 33.5136 16C33.1403 15.3067 32.9536 14.5067 32.9536 13.6C32.9536 12.704 33.1456 11.9147 33.5296 11.232C33.9243 10.5387 34.4576 10.0107 35.1296 9.648C35.8016 9.27467 36.5536 9.088 37.3856 9.088C38.2176 9.088 38.9696 9.27467 39.6416 9.648C40.3136 10.0107 40.8416 10.5333 41.2256 11.216C41.6203 11.8987 41.8176 12.6933 41.8176 13.6C41.8176 14.5067 41.615 15.3067 41.2096 16C40.815 16.6827 40.2763 17.2107 39.5936 17.584C38.911 17.9573 38.1536 18.144 37.3216 18.144ZM37.3216 16.864C37.8443 16.864 38.335 16.7413 38.7936 16.496C39.2523 16.2507 39.6203 15.8827 39.8976 15.392C40.1856 14.9013 40.3296 14.304 40.3296 13.6C40.3296 12.896 40.191 12.2987 39.9136 11.808C39.6363 11.3173 39.2736 10.9547 38.8256 10.72C38.3776 10.4747 37.8923 10.352 37.3696 10.352C36.8363 10.352 36.3456 10.4747 35.8976 10.72C35.4603 10.9547 35.1083 11.3173 34.8416 11.808C34.575 12.2987 34.4416 12.896 34.4416 13.6C34.4416 14.3147 34.5696 14.9173 34.8256 15.408C35.0923 15.8987 35.4443 16.2667 35.8816 16.512C36.319 16.7467 36.799 16.864 37.3216 16.864ZM55.412 9.232L52.676 18H51.172L49.06 11.04L46.948 18H45.444L42.692 9.232H44.18L46.196 16.592L48.372 9.232H49.86L51.988 16.608L53.972 9.232H55.412ZM58.313 10.656C58.569 10.1547 58.9317 9.76533 59.401 9.488C59.881 9.21067 60.4623 9.072 61.145 9.072V10.576H60.761C59.129 10.576 58.313 11.4613 58.313 13.232V18H56.857V9.232H58.313V10.656ZM66.6498 18.144C65.8284 18.144 65.0818 17.9573 64.4098 17.584C63.7484 17.2107 63.2258 16.6827 62.8418 16C62.4684 15.3067 62.2818 14.5067 62.2818 13.6C62.2818 12.704 62.4738 11.9147 62.8578 11.232C63.2524 10.5387 63.7858 10.0107 64.4578 9.648C65.1298 9.27467 65.8818 9.088 66.7138 9.088C67.5458 9.088 68.2978 9.27467 68.9698 9.648C69.6418 10.0107 70.1698 10.5333 70.5538 11.216C70.9484 11.8987 71.1458 12.6933 71.1458 13.6C71.1458 14.5067 70.9431 15.3067 70.5378 16C70.1431 16.6827 69.6044 17.2107 68.9218 17.584C68.2391 17.9573 67.4818 18.144 66.6498 18.144ZM66.6498 16.864C67.1724 16.864 67.6631 16.7413 68.1218 16.496C68.5804 16.2507 68.9484 15.8827 69.2258 15.392C69.5138 14.9013 69.6578 14.304 69.6578 13.6C69.6578 12.896 69.5191 12.2987 69.2418 11.808C68.9644 11.3173 68.6018 10.9547 68.1538 10.72C67.7058 10.4747 67.2204 10.352 66.6978 10.352C66.1644 10.352 65.6738 10.4747 65.2258 10.72C64.7884 10.9547 64.4364 11.3173 64.1698 11.808C63.9031 12.2987 63.7698 12.896 63.7698 13.6C63.7698 14.3147 63.8978 14.9173 64.1538 15.408C64.4204 15.8987 64.7724 16.2667 65.2098 16.512C65.6471 16.7467 66.1271 16.864 66.6498 16.864ZM68.2818 6.64L64.8738 8.464V7.376L68.2818 5.376V6.64ZM74.8361 10.432V15.6C74.8361 16.0267 74.9268 16.3307 75.1081 16.512C75.2895 16.6827 75.6041 16.768 76.0521 16.768H77.1241V18H75.8121C75.0015 18 74.3935 17.8133 73.9881 17.44C73.5828 17.0667 73.3801 16.4533 73.3801 15.6V10.432H72.2441V9.232H73.3801V7.024H74.8361V9.232H77.1241V10.432H74.8361ZM82.6099 13.584C82.6099 12.688 82.7912 11.904 83.1539 11.232C83.5165 10.5493 84.0125 10.0213 84.6419 9.648C85.2819 9.27467 85.9965 9.088 86.7859 9.088C87.4685 9.088 88.1032 9.248 88.6899 9.568C89.2765 9.87733 89.7245 10.288 90.0339 10.8V6.16H91.5059V18H90.0339V16.352C89.7459 16.8747 89.3192 17.3067 88.7539 17.648C88.1885 17.9787 87.5272 18.144 86.7699 18.144C85.9912 18.144 85.2819 17.952 84.6419 17.568C84.0125 17.184 83.5165 16.6453 83.1539 15.952C82.7912 15.2587 82.6099 14.4693 82.6099 13.584ZM90.0339 13.6C90.0339 12.9387 89.9005 12.3627 89.6339 11.872C89.3672 11.3813 89.0045 11.008 88.5459 10.752C88.0979 10.4853 87.6019 10.352 87.0579 10.352C86.5139 10.352 86.0179 10.48 85.5699 10.736C85.1219 10.992 84.7645 11.3653 84.4979 11.856C84.2312 12.3467 84.0979 12.9227 84.0979 13.584C84.0979 14.256 84.2312 14.8427 84.4979 15.344C84.7645 15.8347 85.1219 16.2133 85.5699 16.48C86.0179 16.736 86.5139 16.864 87.0579 16.864C87.6019 16.864 88.0979 16.736 88.5459 16.48C89.0045 16.2133 89.3672 15.8347 89.6339 15.344C89.9005 14.8427 90.0339 14.2613 90.0339 13.6ZM97.7904 18.144C96.969 18.144 96.2224 17.9573 95.5504 17.584C94.889 17.2107 94.3664 16.6827 93.9824 16C93.609 15.3067 93.4224 14.5067 93.4224 13.6C93.4224 12.704 93.6144 11.9147 93.9984 11.232C94.393 10.5387 94.9264 10.0107 95.5984 9.648C96.2704 9.27467 97.0224 9.088 97.8544 9.088C98.6864 9.088 99.4384 9.27467 100.11 9.648C100.782 10.0107 101.31 10.5333 101.694 11.216C102.089 11.8987 102.286 12.6933 102.286 13.6C102.286 14.5067 102.084 15.3067 101.678 16C101.284 16.6827 100.745 17.2107 100.062 17.584C99.3797 17.9573 98.6224 18.144 97.7904 18.144ZM97.7904 16.864C98.313 16.864 98.8037 16.7413 99.2624 16.496C99.721 16.2507 100.089 15.8827 100.366 15.392C100.654 14.9013 100.798 14.304 100.798 13.6C100.798 12.896 100.66 12.2987 100.382 11.808C100.105 11.3173 99.7424 10.9547 99.2944 10.72C98.8464 10.4747 98.361 10.352 97.8384 10.352C97.305 10.352 96.8144 10.4747 96.3664 10.72C95.929 10.9547 95.577 11.3173 95.3104 11.808C95.0437 12.2987 94.9104 12.896 94.9104 13.6C94.9104 14.3147 95.0384 14.9173 95.2944 15.408C95.561 15.8987 95.913 16.2667 96.3504 16.512C96.7877 16.7467 97.2677 16.864 97.7904 16.864ZM109.922 6.16V18H108.466V6.16H109.922ZM116.228 18.144C115.407 18.144 114.66 17.9573 113.988 17.584C113.327 17.2107 112.804 16.6827 112.42 16C112.047 15.3067 111.86 14.5067 111.86 13.6C111.86 12.704 112.052 11.9147 112.436 11.232C112.831 10.5387 113.364 10.0107 114.036 9.648C114.708 9.27467 115.46 9.088 116.292 9.088C117.124 9.088 117.876 9.27467 118.548 9.648C119.22 10.0107 119.748 10.5333 120.132 11.216C120.527 11.8987 120.724 12.6933 120.724 13.6C120.724 14.5067 120.521 15.3067 120.116 16C119.721 16.6827 119.183 17.2107 118.5 17.584C117.817 17.9573 117.06 18.144 116.228 18.144ZM116.228 16.864C116.751 16.864 117.241 16.7413 117.7 16.496C118.159 16.2507 118.527 15.8827 118.804 15.392C119.092 14.9013 119.236 14.304 119.236 13.6C119.236 12.896 119.097 12.2987 118.82 11.808C118.543 11.3173 118.18 10.9547 117.732 10.72C117.284 10.4747 116.799 10.352 116.276 10.352C115.743 10.352 115.252 10.4747 114.804 10.72C114.367 10.9547 114.015 11.3173 113.748 11.808C113.481 12.2987 113.348 12.896 113.348 13.6C113.348 14.3147 113.476 14.9173 113.732 15.408C113.999 15.8987 114.351 16.2667 114.788 16.512C115.225 16.7467 115.705 16.864 116.228 16.864ZM126.254 9.088C127.012 9.088 127.673 9.25333 128.238 9.584C128.814 9.91467 129.241 10.3307 129.518 10.832V9.232H130.99V18.192C130.99 18.992 130.82 19.7013 130.478 20.32C130.137 20.9493 129.646 21.44 129.006 21.792C128.377 22.144 127.641 22.32 126.798 22.32C125.646 22.32 124.686 22.048 123.918 21.504C123.15 20.96 122.697 20.2187 122.558 19.28H123.998C124.158 19.8133 124.489 20.24 124.99 20.56C125.492 20.8907 126.094 21.056 126.798 21.056C127.598 21.056 128.249 20.8053 128.75 20.304C129.262 19.8027 129.518 19.0987 129.518 18.192V16.352C129.23 16.864 128.804 17.2907 128.238 17.632C127.673 17.9733 127.012 18.144 126.254 18.144C125.476 18.144 124.766 17.952 124.126 17.568C123.497 17.184 123.001 16.6453 122.638 15.952C122.276 15.2587 122.094 14.4693 122.094 13.584C122.094 12.688 122.276 11.904 122.638 11.232C123.001 10.5493 123.497 10.0213 124.126 9.648C124.766 9.27467 125.476 9.088 126.254 9.088ZM129.518 13.6C129.518 12.9387 129.385 12.3627 129.118 11.872C128.852 11.3813 128.489 11.008 128.03 10.752C127.582 10.4853 127.086 10.352 126.542 10.352C125.998 10.352 125.502 10.48 125.054 10.736C124.606 10.992 124.249 11.3653 123.982 11.856C123.716 12.3467 123.582 12.9227 123.582 13.584C123.582 14.256 123.716 14.8427 123.982 15.344C124.249 15.8347 124.606 16.2133 125.054 16.48C125.502 16.736 125.998 16.864 126.542 16.864C127.086 16.864 127.582 16.736 128.03 16.48C128.489 16.2133 128.852 15.8347 129.118 15.344C129.385 14.8427 129.518 14.2613 129.518 13.6ZM137.275 18.144C136.453 18.144 135.707 17.9573 135.035 17.584C134.373 17.2107 133.851 16.6827 133.467 16C133.093 15.3067 132.907 14.5067 132.907 13.6C132.907 12.704 133.099 11.9147 133.483 11.232C133.877 10.5387 134.411 10.0107 135.083 9.648C135.755 9.27467 136.507 9.088 137.339 9.088C138.171 9.088 138.923 9.27467 139.595 9.648C140.267 10.0107 140.795 10.5333 141.179 11.216C141.573 11.8987 141.771 12.6933 141.771 13.6C141.771 14.5067 141.568 15.3067 141.163 16C140.768 16.6827 140.229 17.2107 139.547 17.584C138.864 17.9573 138.107 18.144 137.275 18.144ZM137.275 16.864C137.797 16.864 138.288 16.7413 138.747 16.496C139.205 16.2507 139.573 15.8827 139.851 15.392C140.139 14.9013 140.283 14.304 140.283 13.6C140.283 12.896 140.144 12.2987 139.867 11.808C139.589 11.3173 139.227 10.9547 138.779 10.72C138.331 10.4747 137.845 10.352 137.323 10.352C136.789 10.352 136.299 10.4747 135.851 10.72C135.413 10.9547 135.061 11.3173 134.795 11.808C134.528 12.2987 134.395 12.896 134.395 13.6C134.395 14.3147 134.523 14.9173 134.779 15.408C135.045 15.8987 135.397 16.2667 135.835 16.512C136.272 16.7467 136.752 16.864 137.275 16.864ZM155.365 9.232L152.629 18H151.125L149.013 11.04L146.901 18H145.397L142.645 9.232H144.133L146.149 16.592L148.325 9.232H149.813L151.941 16.608L153.925 9.232H155.365ZM156.266 13.584C156.266 12.688 156.447 11.904 156.81 11.232C157.173 10.5493 157.669 10.0213 158.298 9.648C158.938 9.27467 159.647 9.088 160.426 9.088C161.194 9.088 161.861 9.25333 162.426 9.584C162.991 9.91467 163.413 10.3307 163.69 10.832V9.232H165.162V18H163.69V16.368C163.402 16.88 162.97 17.3067 162.394 17.648C161.829 17.9787 161.167 18.144 160.41 18.144C159.631 18.144 158.927 17.952 158.298 17.568C157.669 17.184 157.173 16.6453 156.81 15.952C156.447 15.2587 156.266 14.4693 156.266 13.584ZM163.69 13.6C163.69 12.9387 163.557 12.3627 163.29 11.872C163.023 11.3813 162.661 11.008 162.202 10.752C161.754 10.4853 161.258 10.352 160.714 10.352C160.17 10.352 159.674 10.48 159.226 10.736C158.778 10.992 158.421 11.3653 158.154 11.856C157.887 12.3467 157.754 12.9227 157.754 13.584C157.754 14.256 157.887 14.8427 158.154 15.344C158.421 15.8347 158.778 16.2133 159.226 16.48C159.674 16.736 160.17 16.864 160.714 16.864C161.258 16.864 161.754 16.736 162.202 16.48C162.661 16.2133 163.023 15.8347 163.29 15.344C163.557 14.8427 163.69 14.2613 163.69 13.6ZM171.895 9.072C172.961 9.072 173.825 9.39733 174.487 10.048C175.148 10.688 175.479 11.616 175.479 12.832V18H174.039V13.04C174.039 12.1653 173.82 11.4987 173.383 11.04C172.945 10.5707 172.348 10.336 171.591 10.336C170.823 10.336 170.209 10.576 169.751 11.056C169.303 11.536 169.079 12.2347 169.079 13.152V18H167.623V9.232H169.079V10.48C169.367 10.032 169.756 9.68533 170.247 9.44C170.748 9.19467 171.297 9.072 171.895 9.072ZM178.609 7.808C178.332 7.808 178.097 7.712 177.905 7.52C177.713 7.328 177.617 7.09333 177.617 6.816C177.617 6.53867 177.713 6.304 177.905 6.112C178.097 5.92 178.332 5.824 178.609 5.824C178.876 5.824 179.1 5.92 179.281 6.112C179.473 6.304 179.569 6.53867 179.569 6.816C179.569 7.09333 179.473 7.328 179.281 7.52C179.1 7.712 178.876 7.808 178.609 7.808ZM179.313 9.232V18H177.857V9.232H179.313ZM181.251 13.584C181.251 12.688 181.432 11.904 181.795 11.232C182.157 10.5493 182.653 10.0213 183.283 9.648C183.923 9.27467 184.632 9.088 185.411 9.088C186.179 9.088 186.845 9.25333 187.411 9.584C187.976 9.91467 188.397 10.3307 188.675 10.832V9.232H190.147V18H188.675V16.368C188.387 16.88 187.955 17.3067 187.379 17.648C186.813 17.9787 186.152 18.144 185.395 18.144C184.616 18.144 183.912 17.952 183.283 17.568C182.653 17.184 182.157 16.6453 181.795 15.952C181.432 15.2587 181.251 14.4693 181.251 13.584ZM188.675 13.6C188.675 12.9387 188.541 12.3627 188.275 11.872C188.008 11.3813 187.645 11.008 187.187 10.752C186.739 10.4853 186.243 10.352 185.699 10.352C185.155 10.352 184.659 10.48 184.211 10.736C183.763 10.992 183.405 11.3653 183.139 11.856C182.872 12.3467 182.739 12.9227 182.739 13.584C182.739 14.256 182.872 14.8427 183.139 15.344C183.405 15.8347 183.763 16.2133 184.211 16.48C184.659 16.736 185.155 16.864 185.699 16.864C186.243 16.864 186.739 16.736 187.187 16.48C187.645 16.2133 188.008 15.8347 188.275 15.344C188.541 14.8427 188.675 14.2613 188.675 13.6Z" fill="#5385D1"/>
<path d="M8.62236 18.9953L7.87914 19.7578C7.56445 20.0807 7.05557 20.0807 6.74423 19.7578L0.236023 13.0839C-0.0786743 12.761 -0.0786743 12.239 0.236023 11.9195L6.74423 5.24216C7.05892 4.91928 7.56779 4.91928 7.87914 5.24216L8.62236 6.00469C8.94041 6.33101 8.93371 6.86341 8.60897 7.18285L4.57482 11.1261H14.1965C14.6418 11.1261 15 11.4936 15 11.9504V13.0496C15 13.5064 14.6418 13.8739 14.1965 13.8739H4.57482L8.60897 17.8172C8.93706 18.1366 8.94376 18.669 8.62236 18.9953Z" fill="#5385D1"/>
</svg>
