<svg width="50" height="50" viewBox="0 0 50 50" fill="none" xmlns="http://www.w3.org/2000/svg">
<rect width="49.3862" height="49.3862" rx="24.6931" fill="#051F38"/>
<path d="M27.6479 11.1841C26.746 10.7683 25.7512 10.5209 24.6933 10.5209C21.7209 10.5209 19.1849 12.355 18.1325 14.9497H22.6272L27.6479 11.1841ZM31.254 14.9497C30.8167 13.8719 30.1097 12.9457 29.2339 12.2083L25.5785 14.9497H31.254ZM24.6933 24.6932C28.6067 24.6932 31.7794 21.5205 31.7794 17.607C31.7794 17.3037 31.7268 17.0147 31.6903 16.7213H17.6962C17.6591 17.0147 17.6071 17.3037 17.6071 17.607C17.6071 21.5205 20.7798 24.6932 24.6933 24.6932ZM16.7213 27.1124V38.8655H23.8219L18.3716 26.602C17.8034 26.7067 17.2495 26.8781 16.7213 27.1124ZM12.2925 36.2082C12.2925 37.6758 13.4822 38.8655 14.9498 38.8655V28.2496C13.3377 29.6142 12.2925 31.6277 12.2925 33.9052V36.2082ZM26.4648 33.5509H23.3989L25.7612 38.8655H26.4648C27.9302 38.8655 29.1221 37.6736 29.1221 36.2082C29.1221 34.7428 27.9302 33.5509 26.4648 33.5509ZM29.6536 26.4647H28.7285C27.4973 27.0283 26.1332 27.3505 24.6933 27.3505C23.2533 27.3505 21.8892 27.0283 20.658 26.4647H20.25L22.6123 31.7793H26.4648C28.9068 31.7793 30.8936 33.7662 30.8936 36.2082C30.8936 37.2091 30.5471 38.1231 29.9852 38.8655H34.4367C35.9043 38.8655 37.094 37.6758 37.094 36.2082V33.9052C37.094 29.7958 33.763 26.4647 29.6536 26.4647Z" fill="white"/>
</svg>
